<?xml version="1.0" encoding="UTF-8" standalone="no"?>
<svg id="svg544" xmlns:rdf="http://www.w3.org/1999/02/22-rdf-syntax-ns#" xmlns="http://www.w3.org/2000/svg" height="6004.3pt" width="7453.9pt" version="1.2" xmlns:cc="http://creativecommons.org/ns#" xmlns:dc="http://purl.org/dc/elements/1.1/" viewBox="0 0 7453.93 6004.31">
 <metadata id="metadata548">
  <rdf:RDF>
   <cc:Work rdf:about="">
    <dc:format>image/svg+xml</dc:format>
    <dc:type rdf:resource="http://purl.org/dc/dcmitype/StillImage"/>
    <dc:title/>
   </cc:Work>
  </rdf:RDF>
 </metadata>
 <defs id="defs529">
  <clipPath id="clip1">
   <path id="path2" d="m2 2h7450v6e3h-7450z"/>
  </clipPath>
  <clipPath id="clip2">
   <path id="path5" d="m3209 94.961c-34.7 0-75.7 19.999-112.4 54.869-55 56.03-99.3 169.36-121.8 311.01v0.42c-29.8 162.29-33.2 386.24-10.1 665.64l0.6 7.3 4-6.2c15.1-23.5 31.1-49.2 43.9-69.8 5.7-9.1 11-17.6 15.1-24.1 72.4-122.05 171.1-306.76 230.6-494.02 55.5-174.31 62.8-312.26 21.3-398.93v-0.09c-16.3-30.59-40.2-46.099-71.2-46.099zm3549.3 1281.7c-12 0-25.2 3.3-39.3 9.9-43 20.2-123.1 89.5-175.7 326.7-34.1 146.7-44.6 252-35.1 352l0.4 4.2 3.4-2.3c50.1-33.6 100.2-78.5 145-130 44.9-51.6 84.9-110.4 115.7-170 78.8-161.8 67.3-301.8 41.6-352.1-13.4-25.5-32.2-38.4-56-38.4zm-921.8 79.7c-12 0-25.2 3.4-39.2 9.9-43.1 20.3-123.2 89.6-175.8 326.8-34 146.5-44.5 251.8-35.1 352l0.4 4.2 3.5-2.4c50-33.5 100.2-78.5 144.9-129.9 45-51.7 85-110.4 115.7-170 78.8-161.8 67.4-301.9 41.7-352.1-13.5-25.6-32.3-38.5-56.1-38.5zm-1884.3-991.75c-9.1 0-20.5 4.05-33.7 12.04-40.9 24.58-104.7 129.79-140.9 263.29-43.2 163.76-78.1 392.12-118.6 656.62l-0.1 0.3c-3.8 25-7.7 50.4-11.6 76.1-40.9 255.2-76.2 507.4-105.1 749.5l4.8 1.2 14.9-39.5c74.6-196.9 176.6-466.6 233.5-628.6 83.3-241.7 146-468 181.3-654.4 37.1-195.86 41.2-334.18 12-400l-0.1-0.44c-14.9-36.11-30.5-36.11-36.4-36.11zm935.5 1141.6c-12 0-25.2 3.3-39.3 9.9-43 20.2-123.1 89.5-175.7 326.7-34.1 146.5-44.6 251.8-35.1 352l0.4 4.2 3.5-2.3c50-33.6 100.2-78.5 144.9-130 45-51.6 84.9-110.4 115.7-169.9 78.8-161.8 67.3-301.9 41.5-352.2-13.3-25.5-32.1-38.4-55.9-38.4zm-3021.5 1268.7c-74.9 119.9-160.8 267.8-235.5 405.8-116.3 217.4-256.5 527.8-375.1 830.4l-1.5 3.8 4.1-0.4c71.3-6.7 148-27.6 227.8-62.2 65.8-28.5 132.6-66.4 187.9-106.6l5.5-3.9c140-101.7 260.6-264.6 322.9-435.9 70.1-192.9 59-375.8-31.4-515l-0.2-0.3c-39.8-64.9-76.6-97.5-100.8-116.3l-2.2-1.8zm-259.6-93.8c-256.2 0-556.4 180-751.85 348.5-326.46 274.6-652.24 881.7-354.31 1371.3 51.46 81 108.38 151 169.2 208.1 60.79 57.1 123.68 99.6 186.91 126.3l2.76 1.2 0.65-2.9c16.61-75 38.37-149.2 55.86-208.8l0.38-1.3c3.31-11.4 6.51-22.3 9.53-32.7l0.16-0.5c54.5-167.9 80.51-243.2 136.91-386.8l1.1-2.8-3-0.6c-88.41-18.1-169.78-59.3-223.2-113.1l-0.07-0.1c-17.38-16.1-35.47-41.4-34.11-63.9 0.61-10.2 5.3-18.9 13.19-24.6 4.4-3.2 9.54-4.9 14.88-4.9 10.91 0 20.18 6.9 31.92 15.6l0.17 0.1c6.35 4.8 13.54 10.1 22.55 15.8l0.38 0.2 0.37 0.3c70.58 50.5 132.92 75.1 215.22 85l1.8 0.2 0.8-1.7c114.6-270.6 267.1-583.9 429.5-882.4 74.7-137.3 162.6-286.9 241-410.4l1.6-2.5-2.8-1.1c-50-20.9-106.3-31.5-167.5-31.5zm878.8-841.8c-158.1 223.2-349 509.7-498.1 747.7l-1.5 2.3 2.5 1.2c55.4 27.2 132.6 84.9 183.1 165.2l0.2 0.3c54.7 91.8 80.7 196.3 77.1 310.5-3.3 103-30.2 211.7-80.1 323.3-89.8 200.6-251.5 398.9-432.5 530.3l-5.3 3.9c-74 53.7-160.6 99.7-250.4 132.9-89.7 33.2-180.3 52.8-261.8 56.7l-1.7 0.1-0.5 1.5c-54.4 137.5-93.3 260.2-134.6 390.1-7 25.8-15.7 55.6-24.8 87.2-17.2 59.6-36.7 127.1-48.9 178.1l-0.6 2.7 2.7 0.4c35.6 5.6 73 8.4 111.1 8.4 311.1 0 641.6-186.3 847.2-360.6 501.4-434.2 671.5-1082 551.6-2100.6l-0.1-0.5c-13.7-156.8-28.1-336.5-30-479.6l-0.1-7.7zm-886.7 2957.5c-182.2 113-446.7 253-672.68 278.5l-1.7 0.2-0.44 1.7c-30.34 115.3-52.25 245.9-63.35 377.5-9.64 114.2-10.89 226.6-3.53 316.6l0.64 7.7 4-6.6c44.48-74.4 120.75-195.3 231.46-349.1 153.1-212.7 324.3-422.2 508.7-622.7zm-760.5 1104.9c-29.4 0-49.37-53.1-56.59-75.9l-0.11-0.3-0.09-0.4c-45.57-170.6-49.44-425.4-11.2-736.8l0.34-2.8h-2.81c-126.23-0.7-249.24-28-355.75-79-123.72-59.3-223.27-148.1-295.9-264-156.01-256.3-151.21-581.9 13.93-941.4 137.89-300.2 382.07-607.5 669.93-843.1 237.75-201.6 637.55-418.6 953.65-418.6 44.3 0 86.3 4.3 125.2 12.8l1.6 0.3 1-1.4c50.1-74.4 103.9-155.9 160.8-242.1l0.4-0.6c133.2-201.9 284.2-430.7 426-624.4l0.5-0.7v-0.8c2.1-237 23.8-467.8 64.7-685.9 37.2-199.09 90.1-382.28 152.8-529.72 66.7-159.5 209.6-382.86 365.9-496.38 42.7-31.069 107.2-68.1 171.3-68.1 57.5 0 103.5 28.609 136.8 85.051 55 92.189 55.2 243.69 0.6 438.14-49.3 175.97-143 382.98-263.8 582.91-26.6 46.1-58.8 90.4-89.9 133.3-5.8 7.9-11.5 15.8-17.1 23.5l-0.6 0.9 119.2 753.2c50.3 298.4 43.3 599.4-20.7 894.5l4.5 1.9c49.9-75.7 79.2-127.7 89.5-158.9l0.1-0.3v-0.3c24.3-230.4 59.2-496.8 95.7-730.8 39.1-253.4 95.5-503.1 167.6-742.2 58.3-193.7 127-379.36 198.5-536.81 82-176.28 176.1-297.34 279.7-359.81 24.5-14.74 49.4-22.22 74-22.22 49.8 0 95.4 31.52 125 86.46l0.1 0.25c52.9 102.33 56.6 263.36 11.2 478.61-37.9 179.52-110.6 396.42-210.3 627.32-43.6 98.8-103.1 229-160.8 354.8-106.4 232.7-216.5 473.3-233.4 531.6l-0.1 0.2v0.2c-14.3 103.8-26.4 265.4-41.7 469.9-1.5 19.9-3 40.2-4.5 60.9l4.8 1c31.5-91.5 73.1-205.1 117.3-319.9 35.6-89.3 144-361.3 331.1-473.9 44.8-27 86-40.7 122.5-40.7 47.6 0 85.1 23.2 108.7 67.1l0.3 0.5 0.1 0.4c30.2 65.5 19.1 173 3.9 286.8-1.6 12.3-3.1 24-4.5 35.1-9.3 72-15.4 119.5-15.3 158.3v0.4c-0.7 29 3 64 24.6 65.6h0.2 0.1c12.8-0.6 39.4-23.6 60.1-59.7l0.2-0.3c14.3-23.9 29.6-53.2 45.5-86.9l0.6-1.1-0.6-1.1c-29.7-55-50.7-121.2-59.1-186.4-10.4-80.3-2.3-155.2 24.3-222.8l0.1-0.1v-0.2c2.8-10.2 29.3-103.5 113.8-230.1 51.5-77.3 114.2-151.2 186.3-219.8 90-85.6 194.9-163.1 311.9-230.2l0.5-0.3 6.4-3c98.6-46.3 186.7-69.7 261.9-69.7 74.2 0 131.9 23.2 166.9 67l0.2 0.3c44.6 58 46.3 134.1 5.1 226.4-38.5 86.1-109.9 176-160.3 236.1l-0.2 0.2c-120 138.7-342.8 319.5-488.7 414l-1.4 0.9 0.3 1.6c4 24.7 17.9 60.4 39.9 84.5 34.3 37.8 106.6 63.1 179.8 63.1 37.5 0 72-6.8 99.6-19.8 60.6-28.4 138.6-94.8 214.1-182.3l0.8-1-0.3-1.2c-17.8-71.1-30.2-178.4 12.2-286.2v-0.2l0.1-0.1c2.7-10.2 29.2-103.6 113.7-230.2 51.5-77.2 114.2-151.2 186.3-219.8 90-85.6 194.9-163 311.9-230.2l0.6-0.3 6.4-3c98.6-46.2 186.7-69.7 261.9-69.7 74.1 0 131.8 23.2 166.8 67.1l0.2 0.2c44.6 58 46.4 134.2 5.2 226.4-38.5 86.1-109.9 176-160.3 236.1l-0.2 0.2c-120 138.7-342.8 319.5-488.8 414l-1.3 0.9 0.2 1.6c4.1 24.7 18 60.5 39.9 84.5 34.4 37.8 106.6 63.2 179.8 63.2 37.6 0 72-6.9 99.7-19.8 51.4-24.2 115.2-75.4 179.8-144.4l0.9-0.9-0.3-1.3c-11.9-63.2-18.3-158.6 19.2-254.1l0.1-0.1v-0.2c2.7-10.2 29.3-103.6 113.7-230.1 51.6-77.3 114.3-151.3 186.4-219.9 89.9-85.6 194.9-163 311.9-230.1l0.5-0.3 6.5-3c98.6-46.3 186.7-69.7 261.9-69.7 74.1 0 131.8 23.2 166.8 67l0.2 0.3c44.6 57.9 46.4 134.1 5.2 226.4-38.5 86.1-110 176-160.4 236l-0.1 0.2c-120.1 138.8-342.8 319.5-488.8 414.1l-1.4 0.9 0.3 1.6c4 24.7 18 60.4 39.9 84.5 34.3 37.7 106.6 63.1 179.8 63.1 37.6 0 72-6.9 99.6-19.8 87.5-41 233.6-171.7 381-415.4 62.9-109.2 128.8-252 164-355.5l0.2-0.5 0.2-0.6c15.4-36.1 23.1-54.1 40.3-54.1 4.9 0 12.1 1.8 18.5 10.5 5 6.8 16.8 22.9-15.8 150.1-20.6 80.1-52.1 177.5-88.8 274.4-45 119-164.1 408.5-296.5 526.4-139.9 124.8-307.9 150.9-424.2 150.9-188.3 0-362.2-67.5-421.6-132.8-2.6-2.8-5.2-5.9-7.9-9.2l-2-2.5-1.9 2.5c-21.8 28.5-43.4 52.4-64.2 70.9-139.9 124.7-307.9 150.9-424.2 150.9-108.6 0-198-21.9-254-40.3-71.6-23.5-131.1-55.6-163.2-88l-2.2-2.2-1.7 2.6c-35.5 54.5-70.3 97.2-103.5 126.8-140 124.8-308 151-424.3 151-185.3 0-352.2-65-415-126.2l-2.5-2.4-1.5 3.1c-64.6 132.9-138.5 226.6-219.5 278.4-54.4 34.4-103.2 51.8-145.1 51.8-59.2 0-105.7-35.2-131-99.1-26.5-68.6-18.7-134.5-0.1-265.3 2.5-17.1 5.1-34.4 7.7-51.7l0.4-3c10-67 20.3-136.3 27.2-191 1.4-10.5-1-17.5-3.7-20.6-1.1-1.2-2.8-2.6-6.5-2.6-1.2 0-2.7 0.1-4.2 0.5-7.1 1.5-33.6 12.2-78.3 82.7-39.2 64.8-85.4 168.1-133.6 298.8-43.8 117.5-74.9 206.9-107.8 301.5l-0.4 0.9c-24.4 70.2-49.6 142.7-80.8 228.6-11.8 36-69.3 79.1-127.3 120.1-7.6 5.4-13.3 9.4-18.1 13l-0.4 0.2c-57.5 39.8-88.8 55.3-111.6 55.3-37.7 0-43.4-41.3-45.9-59l-0.1-0.6c-9.9-99.6-4.3-224.2 2.2-311.2 3.5-42.3 8.5-88.7 14.8-137.9l-4.6-1.6c-37.8 60.8-97.5 144.6-150.4 218.3l-0.2 0.3-0.2 0.4c-99.9 294.2-256.8 580.9-466.4 852.1l3.5 3.5c549-419 1106-735.6 1655.5-940.9 689.9-257.8 1463.6-388.5 2299.5-388.5 153.3 0 310.7 4.4 467.7 13.3 6.2 0.3 11.7 4.1 14.2 9.8 4.2 9.5-1.3 19.6-8.9 31.8-6 9.5-14.7 22.1-26.6 38.4-20.4 28-50.4 66.8-89 115.6-69.7 88-153.6 190.4-203.7 251.6l-1.2 1.4c-23.6 28.9-42.3 51.7-44.8 55.1-15.3 20.9-44 45.4-74.5 45.4-1 0-1.8-0.1-2.7-0.1-236.1-13.3-465.1-20-680.6-20-1527 0-2569.1 322.4-3484.5 1078-716.7 591.7-1194.1 1238.7-1397.9 1515-77.35 104.8-104.9 141.5-120.78 150.4h-0.08l-0.06 0.1c-0.45 0.3-0.92 0.5-1.42 0.8-3.67 1.9-7.59 2.9-11.66 2.9z"/>
  </clipPath>
  <clipPath id="clip3">
   <path id="path8" d="m3209 94.941c-34.7 0-75.7 20.019-112.4 54.899-55 56-99.3 169.37-121.8 311v0.41c-29.8 162.28-33.2 386.23-10.1 665.65l0.6 7.3 4-6.2c15.1-23.5 31.1-49.2 43.9-69.8 5.7-9.1 11-17.6 15.1-24.1 72.4-122.06 171.1-306.75 230.6-493.99 55.5-174.31 62.8-312.28 21.3-398.95v-0.09c-16.3-30.59-40.2-46.129-71.2-46.129zm3549.3 1281.8c-12 0-25.2 3.3-39.2 9.9-43.1 20.2-123.2 89.5-175.8 326.7-34.1 146.7-44.6 252-35.1 352l0.3 4.2 3.5-2.3c50.1-33.5 100.2-78.5 145-130 45-51.6 85-110.4 115.7-169.9 78.8-161.9 67.3-301.9 41.6-352.2-13.4-25.5-32.2-38.4-56-38.4zm-921.8 79.7c-12 0-25.2 3.4-39.2 9.9-43.1 20.3-123.2 89.6-175.8 326.8-34 146.5-44.5 251.8-35.1 352l0.4 4.2 3.5-2.4c50-33.5 100.2-78.5 144.9-129.9 45-51.7 85-110.4 115.7-170 78.8-161.8 67.3-301.9 41.6-352.1-13.4-25.6-32.2-38.5-56-38.5zm-1884.3-991.72c-9.1 0-20.5 4.02-33.7 12.02-40.9 24.59-104.7 129.78-140.9 263.26-43.2 163.8-78.1 392.14-118.6 656.64l-0.1 0.3c-3.8 25-7.7 50.4-11.6 76.1-40.9 255.2-76.2 507.4-105.1 749.5l4.8 1.2 15-39.5c74.5-196.9 176.5-466.6 233.4-628.6 83.3-241.7 146-468 181.3-654.4 37.1-195.89 41.2-334.17 12-400l-0.1-0.46c-14.9-36.06-30.5-36.06-36.4-36.06zm935.5 1141.6c-12 0-25.2 3.3-39.3 9.9-43 20.2-123.1 89.5-175.7 326.7-34.1 146.5-44.6 251.8-35.1 352l0.4 4.2 3.5-2.3c50-33.6 100.1-78.5 144.9-130 44.9-51.6 84.9-110.4 115.7-169.9 78.8-161.8 67.3-301.9 41.6-352.2-13.4-25.5-32.2-38.4-56-38.4zm-3021.5 1268.7c-74.9 119.9-160.8 267.8-235.5 405.8-116.3 217.4-256.5 527.8-375.1 830.4l-1.5 3.8 4.1-0.4c71.3-6.7 148-27.6 227.8-62.2 65.8-28.5 132.6-66.4 187.9-106.6l5.5-3.9c139.9-101.7 260.6-264.6 322.9-435.9 70.1-192.9 59-375.8-31.4-515l-0.2-0.3c-39.9-64.9-76.6-97.5-100.8-116.3l-2.2-1.7zm-259.6-93.8c-256.2 0-556.4 180-751.85 348.5-326.46 274.6-652.24 881.7-354.31 1371.3 51.46 81 108.38 151 169.2 208.2 60.79 57 123.68 99.5 186.91 126.2l2.76 1.2 0.65-2.9c16.61-75 38.37-149.2 55.86-208.8l0.38-1.3c3.31-11.4 6.51-22.3 9.53-32.7l0.16-0.5c54.49-167.9 80.51-243.2 136.91-386.8l1.1-2.8-3-0.6c-88.41-18.1-169.78-59.3-223.2-113.1l-0.07-0.1c-17.38-16.1-35.47-41.4-34.11-63.9 0.61-10.2 5.3-18.9 13.19-24.6 4.4-3.2 9.54-4.9 14.88-4.9 10.91 0 20.18 6.9 31.92 15.6l0.17 0.1c6.35 4.8 13.54 10.1 22.55 15.8l0.38 0.2 0.37 0.3c70.58 50.5 132.92 75.1 215.22 85l1.8 0.2 0.8-1.7c114.6-270.6 267.1-583.9 429.5-882.4 74.7-137.3 162.5-286.9 241-410.4l1.6-2.5-2.8-1.1c-50-20.9-106.3-31.5-167.5-31.5zm878.8-841.8c-158.1 223.3-349 509.7-498.1 747.7l-1.5 2.3 2.5 1.2c55.4 27.2 132.6 84.9 183.1 165.2l0.2 0.3c54.7 91.8 80.7 196.3 77.1 310.5-3.3 103-30.2 211.7-80.1 323.3-89.8 200.6-251.5 398.9-432.5 530.3l-5.3 3.9c-74 53.7-160.6 99.7-250.4 132.9-89.7 33.2-180.3 52.8-261.8 56.7l-1.7 0.1-0.5 1.5c-54.4 137.5-93.3 260.2-134.6 390.1-7 25.8-15.7 55.6-24.8 87.2-17.2 59.6-36.7 127.1-48.9 178.1l-0.6 2.7 2.7 0.4c35.6 5.6 73 8.4 111.1 8.4 311.1 0 641.6-186.3 847.2-360.6 501.4-434.2 671.5-1082 551.6-2100.6l-0.1-0.5c-13.7-156.8-28.1-336.5-30-479.6l-0.1-7.7zm-886.7 2957.5c-182.2 113-446.7 253-672.68 278.5l-1.7 0.2-0.44 1.7c-30.34 115.3-52.25 245.9-63.35 377.5-9.64 114.2-10.89 226.6-3.53 316.6l0.63 7.7 4.01-6.6c44.48-74.4 120.75-195.3 231.46-349.1 153.1-212.7 324.2-422.2 508.7-622.7zm-760.5 1104.9c-29.4 0-49.37-53.1-56.59-75.9l-0.11-0.3-0.09-0.4c-45.57-170.6-49.45-425.4-11.2-736.8l0.34-2.8h-2.8c-126.24-0.7-249.26-28-355.76-79-123.72-59.3-223.27-148.1-295.9-264-156.01-256.3-151.21-581.9 13.93-941.4 137.89-300.2 382.07-607.5 669.93-843.1 237.75-201.6 637.55-418.6 953.65-418.6 44.2 0 86.4 4.3 125.2 12.8l1.6 0.3 1-1.4c50.1-74.4 103.9-155.9 160.8-242.1l0.4-0.6c133.2-201.9 284.2-430.7 426-624.4l0.5-0.7v-0.8c2.1-237 23.8-467.8 64.7-685.9 37.2-199.07 90.1-382.29 152.8-529.72 66.7-159.49 209.6-382.85 365.9-496.36 42.7-31.085 107.2-68.116 171.3-68.116 57.5-0.0001 103.5 28.617 136.8 85.031 55 92.205 55.2 243.7 0.6 438.16-49.4 175.96-143 382.95-263.8 582.9-26.6 46.1-58.8 90.4-89.9 133.3-5.8 7.9-11.5 15.8-17.1 23.5l-0.6 0.9 119.2 753.2c50.3 298.4 43.3 599.4-20.7 894.5l4.5 2c49.9-75.8 79.2-127.8 89.5-159l0.1-0.3v-0.3c24.3-230.4 59.2-496.8 95.7-730.8 39.1-253.4 95.5-503.1 167.6-742.2 58.3-193.7 127-379.36 198.5-536.81 82-176.27 176.1-297.32 279.7-359.81 24.5-14.72 49.4-22.22 74-22.22 49.8 0 95.4 31.5 125 86.45l0.1 0.27c52.9 102.31 56.6 263.36 11.2 478.58-37.9 179.54-110.6 396.44-210.3 627.34-43.6 98.8-103.2 229-160.8 354.8-106.4 232.7-216.5 473.3-233.4 531.6l-0.1 0.2v0.2c-14.3 103.8-26.4 265.4-41.7 469.9-1.5 19.9-3 40.2-4.5 60.9l4.8 1c31.5-91.5 73.1-205.1 117.3-319.9 35.6-89.3 144-361.3 331.1-473.9 44.8-27 86-40.7 122.5-40.7 47.6 0 85.1 23.2 108.7 67.1l0.2 0.5 0.2 0.4c30.2 65.5 19.1 173 3.8 286.8-1.5 12.3-3 24-4.4 35.1-9.3 72-15.4 119.5-15.3 158.3v0.4c-0.7 29 3 64 24.6 65.6h0.2 0.1c12.8-0.6 39.4-23.6 60.1-59.7l0.2-0.3c14.3-23.9 29.7-53.2 45.5-86.9l0.6-1.1-0.6-1.1c-29.7-55-50.7-121.2-59.1-186.4-10.4-80.3-2.3-155.2 24.3-222.8l0.1-0.1v-0.2c2.8-10.2 29.3-103.5 113.7-230.1 51.6-77.3 114.3-151.2 186.4-219.8 89.9-85.6 194.9-163.1 311.9-230.2l0.5-0.3 6.4-3c98.6-46.3 186.7-69.7 261.9-69.7 74.2 0 131.9 23.2 166.9 67l0.2 0.3c44.6 58 46.3 134.1 5.1 226.4-38.5 86.1-109.9 176-160.3 236.1l-0.2 0.2c-120 138.7-342.7 319.5-488.7 414l-1.4 0.9 0.3 1.6c4 24.7 17.9 60.4 39.9 84.5 34.3 37.8 106.6 63.1 179.8 63.1 37.5 0 72-6.8 99.6-19.8 60.6-28.4 138.7-94.8 214.1-182.3l0.8-1-0.3-1.2c-17.8-71.1-30.2-178.4 12.2-286.2v-0.2l0.1-0.1c2.7-10.2 29.2-103.6 113.7-230.2 51.5-77.2 114.2-151.2 186.3-219.8 90-85.6 194.9-163 311.9-230.2l0.6-0.3 6.4-3c98.6-46.2 186.7-69.7 261.9-69.7 74.1 0 131.8 23.2 166.8 67.1l0.2 0.2c44.7 58 46.4 134.2 5.2 226.4-38.5 86.1-109.9 176-160.4 236.1l-0.1 0.2c-120 138.7-342.8 319.5-488.8 414l-1.3 0.9 0.2 1.6c4.1 24.8 18 60.5 39.9 84.6 34.3 37.7 106.6 63.1 179.8 63.1 37.6 0 72-6.9 99.7-19.8 51.4-24.2 115.2-75.4 179.8-144.4l0.9-0.9-0.3-1.3c-11.9-63.2-18.3-158.6 19.2-254.1l0.1-0.1v-0.2c2.8-10.2 29.3-103.6 113.8-230.1 51.5-77.3 114.2-151.3 186.3-219.9 90-85.6 194.9-163 311.9-230.1l0.5-0.3 6.4-3c98.7-46.3 186.8-69.7 261.9-69.7 74.2 0 131.9 23.2 166.9 67l0.2 0.3c44.6 58 46.4 134.1 5.2 226.4-38.5 86.1-109.9 176-160.4 236l-0.1 0.2c-120.1 138.8-342.9 319.5-488.8 414.1l-1.4 0.9 0.3 1.6c4 24.7 17.9 60.4 39.8 84.5 34.4 37.7 106.7 63.1 179.9 63.1 37.6 0 72-6.9 99.6-19.8 87.5-41 233.5-171.7 381-415.4 62.9-109.2 128.8-252 164-355.5l0.2-0.5 0.2-0.6c15.4-36 23.1-54.2 40.3-54.2 4.9 0 12.1 1.9 18.5 10.6 5 6.8 16.8 22.9-15.8 150.1-20.6 80.1-52.1 177.5-88.8 274.4-45 119-164.2 408.5-296.5 526.4-139.9 124.8-307.9 150.9-424.2 150.9-188.3 0-362.2-67.5-421.7-132.8-2.5-2.8-5.1-5.9-7.8-9.2l-2-2.5-1.9 2.5c-21.9 28.6-43.4 52.4-64.1 70.9-140.1 124.7-308.1 150.9-424.3 150.9-108.6 0-198-21.9-254-40.3-71.6-23.5-131.1-55.6-163.2-88l-2.2-2.2-1.7 2.6c-35.5 54.5-70.3 97.2-103.5 126.8-140 124.8-308 151-424.3 151-185.3 0-352.2-65-415-126.2l-2.5-2.4-1.5 3.1c-64.6 132.9-138.5 226.6-219.5 278.4-54.4 34.4-103.3 51.8-145.1 51.8-59.2 0-105.7-35.2-131-99.1-26.5-68.6-18.7-134.5-0.1-265.3 2.5-17.1 5.1-34.4 7.7-51.7l0.4-3c10-67 20.3-136.3 27.2-191 1.4-10.5-1-17.5-3.7-20.6-1.1-1.2-2.8-2.6-6.5-2.6-1.2 0-2.7 0.1-4.2 0.5-7.1 1.5-33.6 12.2-78.3 82.7-39.2 64.8-85.4 168.1-133.6 298.8-43.8 117.5-74.9 206.9-107.8 301.5l-0.4 0.9c-24.4 70.2-49.6 142.7-80.8 228.6-11.8 36-69.3 79.1-127.3 120.1-7.6 5.4-13.3 9.4-18.1 13l-0.4 0.2c-57.5 39.8-88.8 55.3-111.6 55.3-37.7 0-43.4-41.3-45.9-59l-0.1-0.6c-9.9-99.6-4.3-224.2 2.2-311.2 3.5-42.3 8.5-88.7 14.8-137.9l-4.6-1.6c-37.8 60.8-97.5 144.6-150.4 218.3l-0.2 0.3-0.2 0.4c-99.9 294.2-256.8 580.9-466.4 852.1l3.5 3.5c549-419 1106-735.6 1655.5-940.9 689.9-257.8 1463.6-388.5 2299.5-388.5 153.3 0 310.6 4.4 467.7 13.3 6.3 0.3 11.7 4.1 14.2 9.8 4.2 9.5-1.3 19.6-8.9 31.8-6 9.5-14.7 22.1-26.6 38.4-20.4 28-50.4 66.8-89 115.6-69.7 88-153.6 190.4-203.7 251.6l-1.2 1.4c-23.6 28.9-42.3 51.7-44.8 55.1-15.3 20.9-44 45.4-74.5 45.4-1 0-1.8-0.1-2.7-0.1-236.2-13.3-465.1-20-680.6-20-1527 0-2569.1 322.4-3484.5 1078-716.7 591.7-1194.1 1238.7-1397.9 1515-77.35 104.8-104.9 141.5-120.79 150.4l-0.14 0.1c-0.44 0.3-0.91 0.5-1.41 0.8-3.67 1.9-7.59 2.9-11.66 2.9"/>
  </clipPath>
  <linearGradient id="linear0" gradientUnits="userSpaceOnUse" gradientTransform="matrix(2.7e-7 -5999.3 5999.3 2.7e-7 3726.9 6001.8)" x1="-1.6696e-8">
   <stop id="stop11" stop-color="#be279a" offset="0"/>
   <stop id="stop13" stop-color="#bd269a" offset=".0039062"/>
   <stop id="stop15" stop-color="#bd2699" offset=".0078125"/>
   <stop id="stop17" stop-color="#bc2698" offset=".011719"/>
   <stop id="stop19" stop-color="#bc2697" offset=".015625"/>
   <stop id="stop21" stop-color="#bc2697" offset=".019531"/>
   <stop id="stop23" stop-color="#bb2696" offset=".023438"/>
   <stop id="stop25" stop-color="#bb2695" offset=".027344"/>
   <stop id="stop27" stop-color="#ba2694" offset=".03125"/>
   <stop id="stop29" stop-color="#ba2694" offset=".035156"/>
   <stop id="stop31" stop-color="#b92593" offset=".039062"/>
   <stop id="stop33" stop-color="#b92592" offset=".042969"/>
   <stop id="stop35" stop-color="#b92592" offset=".046875"/>
   <stop id="stop37" stop-color="#b82591" offset=".050781"/>
   <stop id="stop39" stop-color="#b82590" offset=".054688"/>
   <stop id="stop41" stop-color="#b7258f" offset=".058594"/>
   <stop id="stop43" stop-color="#b7258f" offset=".0625"/>
   <stop id="stop45" stop-color="#b6258e" offset=".066406"/>
   <stop id="stop47" stop-color="#b6258d" offset=".070312"/>
   <stop id="stop49" stop-color="#b6248d" offset=".074219"/>
   <stop id="stop51" stop-color="#b5248c" offset=".078125"/>
   <stop id="stop53" stop-color="#b5248b" offset=".082031"/>
   <stop id="stop55" stop-color="#b4248b" offset=".085938"/>
   <stop id="stop57" stop-color="#b4248a" offset=".089844"/>
   <stop id="stop59" stop-color="#b32489" offset=".09375"/>
   <stop id="stop61" stop-color="#b32489" offset=".097656"/>
   <stop id="stop63" stop-color="#b32488" offset=".10156"/>
   <stop id="stop65" stop-color="#b22487" offset=".10547"/>
   <stop id="stop67" stop-color="#b22386" offset=".10938"/>
   <stop id="stop69" stop-color="#b12386" offset=".11328"/>
   <stop id="stop71" stop-color="#b12385" offset=".11719"/>
   <stop id="stop73" stop-color="#b02384" offset=".12109"/>
   <stop id="stop75" stop-color="#b02384" offset=".125"/>
   <stop id="stop77" stop-color="#b02383" offset=".12891"/>
   <stop id="stop79" stop-color="#af2382" offset=".13281"/>
   <stop id="stop81" stop-color="#af2382" offset=".13672"/>
   <stop id="stop83" stop-color="#ae2381" offset=".14062"/>
   <stop id="stop85" stop-color="#ae2280" offset=".14453"/>
   <stop id="stop87" stop-color="#ae2280" offset=".14844"/>
   <stop id="stop89" stop-color="#ad227f" offset=".15234"/>
   <stop id="stop91" stop-color="#ad227f" offset=".15625"/>
   <stop id="stop93" stop-color="#ac227e" offset=".16016"/>
   <stop id="stop95" stop-color="#ac227d" offset=".16406"/>
   <stop id="stop97" stop-color="#ab227d" offset=".16797"/>
   <stop id="stop99" stop-color="#ab227c" offset=".17188"/>
   <stop id="stop101" stop-color="#ab227b" offset=".17578"/>
   <stop id="stop103" stop-color="#aa227b" offset=".17969"/>
   <stop id="stop105" stop-color="#aa217a" offset=".18359"/>
   <stop id="stop107" stop-color="#a92179" offset=".1875"/>
   <stop id="stop109" stop-color="#a92179" offset=".19141"/>
   <stop id="stop111" stop-color="#a92178" offset=".19531"/>
   <stop id="stop113" stop-color="#a82177" offset=".19922"/>
   <stop id="stop115" stop-color="#a82177" offset=".20312"/>
   <stop id="stop117" stop-color="#a72176" offset=".20703"/>
   <stop id="stop119" stop-color="#a72176" offset=".21094"/>
   <stop id="stop121" stop-color="#a62175" offset=".21484"/>
   <stop id="stop123" stop-color="#a62074" offset=".21875"/>
   <stop id="stop125" stop-color="#a62074" offset=".22266"/>
   <stop id="stop127" stop-color="#a52073" offset=".22656"/>
   <stop id="stop129" stop-color="#a52072" offset=".23047"/>
   <stop id="stop131" stop-color="#a42072" offset=".23438"/>
   <stop id="stop133" stop-color="#a42071" offset=".23828"/>
   <stop id="stop135" stop-color="#a42071" offset=".24219"/>
   <stop id="stop137" stop-color="#a32070" offset=".24609"/>
   <stop id="stop139" stop-color="#a3206f" offset=".25"/>
   <stop id="stop141" stop-color="#a2206f" offset=".25391"/>
   <stop id="stop143" stop-color="#a21f6e" offset=".25781"/>
   <stop id="stop145" stop-color="#a11f6e" offset=".26172"/>
   <stop id="stop147" stop-color="#a11f6d" offset=".26562"/>
   <stop id="stop149" stop-color="#a11f6c" offset=".26953"/>
   <stop id="stop151" stop-color="#a01f6c" offset=".27344"/>
   <stop id="stop153" stop-color="#a01f6b" offset=".27734"/>
   <stop id="stop155" stop-color="#9f1f6b" offset=".28125"/>
   <stop id="stop157" stop-color="#9f1f6a" offset=".28516"/>
   <stop id="stop159" stop-color="#9f1f69" offset=".28906"/>
   <stop id="stop161" stop-color="#9e1f69" offset=".29297"/>
   <stop id="stop163" stop-color="#9e1e68" offset=".29688"/>
   <stop id="stop165" stop-color="#9d1e68" offset=".30078"/>
   <stop id="stop167" stop-color="#9d1e67" offset=".30469"/>
   <stop id="stop169" stop-color="#9d1e67" offset=".30859"/>
   <stop id="stop171" stop-color="#9c1e66" offset=".3125"/>
   <stop id="stop173" stop-color="#9c1e65" offset=".31641"/>
   <stop id="stop175" stop-color="#9b1e65" offset=".32031"/>
   <stop id="stop177" stop-color="#9b1e64" offset=".32422"/>
   <stop id="stop179" stop-color="#9b1e64" offset=".32812"/>
   <stop id="stop181" stop-color="#9a1e63" offset=".33203"/>
   <stop id="stop183" stop-color="#9a1d63" offset=".33594"/>
   <stop id="stop185" stop-color="#991d62" offset=".33984"/>
   <stop id="stop187" stop-color="#991d61" offset=".34375"/>
   <stop id="stop189" stop-color="#981d61" offset=".34766"/>
   <stop id="stop191" stop-color="#981d60" offset=".35156"/>
   <stop id="stop193" stop-color="#981d60" offset=".35547"/>
   <stop id="stop195" stop-color="#971d5f" offset=".35938"/>
   <stop id="stop197" stop-color="#971d5f" offset=".36328"/>
   <stop id="stop199" stop-color="#961d5e" offset=".36719"/>
   <stop id="stop201" stop-color="#961d5e" offset=".37109"/>
   <stop id="stop203" stop-color="#961c5d" offset=".375"/>
   <stop id="stop205" stop-color="#951c5c" offset=".37891"/>
   <stop id="stop207" stop-color="#951c5c" offset=".38281"/>
   <stop id="stop209" stop-color="#941c5b" offset=".38672"/>
   <stop id="stop211" stop-color="#941c5b" offset=".39062"/>
   <stop id="stop213" stop-color="#941c5a" offset=".39453"/>
   <stop id="stop215" stop-color="#931c5a" offset=".39844"/>
   <stop id="stop217" stop-color="#931c59" offset=".40234"/>
   <stop id="stop219" stop-color="#921c59" offset=".40625"/>
   <stop id="stop221" stop-color="#921c58" offset=".41016"/>
   <stop id="stop223" stop-color="#921b58" offset=".41406"/>
   <stop id="stop225" stop-color="#911b57" offset=".41797"/>
   <stop id="stop227" stop-color="#911b57" offset=".42188"/>
   <stop id="stop229" stop-color="#901b56" offset=".42578"/>
   <stop id="stop231" stop-color="#901b56" offset=".42969"/>
   <stop id="stop233" stop-color="#901b55" offset=".43359"/>
   <stop id="stop235" stop-color="#8f1b54" offset=".4375"/>
   <stop id="stop237" stop-color="#8f1b54" offset=".44141"/>
   <stop id="stop239" stop-color="#8e1b53" offset=".44531"/>
   <stop id="stop241" stop-color="#8e1b53" offset=".44922"/>
   <stop id="stop243" stop-color="#8e1a52" offset=".45312"/>
   <stop id="stop245" stop-color="#8d1a52" offset=".45703"/>
   <stop id="stop247" stop-color="#8d1a51" offset=".46094"/>
   <stop id="stop249" stop-color="#8c1a51" offset=".46484"/>
   <stop id="stop251" stop-color="#8c1a50" offset=".46875"/>
   <stop id="stop253" stop-color="#8c1a50" offset=".47266"/>
   <stop id="stop255" stop-color="#8b1a4f" offset=".47656"/>
   <stop id="stop257" stop-color="#8b1a4f" offset=".48047"/>
   <stop id="stop259" stop-color="#8a1a4e" offset=".48438"/>
   <stop id="stop261" stop-color="#8a1a4e" offset=".48828"/>
   <stop id="stop263" stop-color="#8a1a4d" offset=".49219"/>
   <stop id="stop265" stop-color="#89194d" offset=".49609"/>
   <stop id="stop267" stop-color="#89194c" offset=".5"/>
   <stop id="stop269" stop-color="#88194c" offset=".50391"/>
   <stop id="stop271" stop-color="#88194c" offset=".50781"/>
   <stop id="stop273" stop-color="#88194b" offset=".51172"/>
   <stop id="stop275" stop-color="#87194b" offset=".51562"/>
   <stop id="stop277" stop-color="#87194a" offset=".51953"/>
   <stop id="stop279" stop-color="#87194a" offset=".52344"/>
   <stop id="stop281" stop-color="#861949" offset=".52734"/>
   <stop id="stop283" stop-color="#861949" offset=".53125"/>
   <stop id="stop285" stop-color="#851948" offset=".53516"/>
   <stop id="stop287" stop-color="#851848" offset=".53906"/>
   <stop id="stop289" stop-color="#851847" offset=".54297"/>
   <stop id="stop291" stop-color="#841847" offset=".54688"/>
   <stop id="stop293" stop-color="#841846" offset=".55078"/>
   <stop id="stop295" stop-color="#831846" offset=".55469"/>
   <stop id="stop297" stop-color="#831845" offset=".55859"/>
   <stop id="stop299" stop-color="#831845" offset=".5625"/>
   <stop id="stop301" stop-color="#821844" offset=".56641"/>
   <stop id="stop303" stop-color="#821844" offset=".57031"/>
   <stop id="stop305" stop-color="#811844" offset=".57422"/>
   <stop id="stop307" stop-color="#811743" offset=".57812"/>
   <stop id="stop309" stop-color="#811743" offset=".58203"/>
   <stop id="stop311" stop-color="#801742" offset=".58594"/>
   <stop id="stop313" stop-color="#801742" offset=".58984"/>
   <stop id="stop315" stop-color="#7f1741" offset=".59375"/>
   <stop id="stop317" stop-color="#7f1741" offset=".59766"/>
   <stop id="stop319" stop-color="#7f1740" offset=".60156"/>
   <stop id="stop321" stop-color="#7e1740" offset=".60547"/>
   <stop id="stop323" stop-color="#7e1740" offset=".60938"/>
   <stop id="stop325" stop-color="#7e173f" offset=".61328"/>
   <stop id="stop327" stop-color="#7d173f" offset=".61719"/>
   <stop id="stop329" stop-color="#7d163e" offset=".62109"/>
   <stop id="stop331" stop-color="#7c163e" offset=".625"/>
   <stop id="stop333" stop-color="#7c163d" offset=".62891"/>
   <stop id="stop335" stop-color="#7c163d" offset=".63281"/>
   <stop id="stop337" stop-color="#7b163d" offset=".63672"/>
   <stop id="stop339" stop-color="#7b163c" offset=".64062"/>
   <stop id="stop341" stop-color="#7a163c" offset=".64453"/>
   <stop id="stop343" stop-color="#7a163b" offset=".64844"/>
   <stop id="stop345" stop-color="#7a163b" offset=".65234"/>
   <stop id="stop347" stop-color="#79163a" offset=".65625"/>
   <stop id="stop349" stop-color="#79163a" offset=".66016"/>
   <stop id="stop351" stop-color="#79153a" offset=".66406"/>
   <stop id="stop353" stop-color="#781539" offset=".66797"/>
   <stop id="stop355" stop-color="#781539" offset=".67188"/>
   <stop id="stop357" stop-color="#771538" offset=".67578"/>
   <stop id="stop359" stop-color="#771538" offset=".67969"/>
   <stop id="stop361" stop-color="#771538" offset=".68359"/>
   <stop id="stop363" stop-color="#761537" offset=".6875"/>
   <stop id="stop365" stop-color="#761537" offset=".69141"/>
   <stop id="stop367" stop-color="#751536" offset=".69531"/>
   <stop id="stop369" stop-color="#751536" offset=".69922"/>
   <stop id="stop371" stop-color="#751536" offset=".70312"/>
   <stop id="stop373" stop-color="#741535" offset=".70703"/>
   <stop id="stop375" stop-color="#741435" offset=".71094"/>
   <stop id="stop377" stop-color="#741434" offset=".71484"/>
   <stop id="stop379" stop-color="#731434" offset=".71875"/>
   <stop id="stop381" stop-color="#731434" offset=".72266"/>
   <stop id="stop383" stop-color="#721433" offset=".72656"/>
   <stop id="stop385" stop-color="#721433" offset=".73047"/>
   <stop id="stop387" stop-color="#721432" offset=".73438"/>
   <stop id="stop389" stop-color="#711432" offset=".73828"/>
   <stop id="stop391" stop-color="#711432" offset=".74219"/>
   <stop id="stop393" stop-color="#701431" offset=".74609"/>
   <stop id="stop395" stop-color="#701431" offset=".75"/>
   <stop id="stop397" stop-color="#701331" offset=".75391"/>
   <stop id="stop399" stop-color="#6f1330" offset=".75781"/>
   <stop id="stop401" stop-color="#6f1330" offset=".76172"/>
   <stop id="stop403" stop-color="#6f132f" offset=".76562"/>
   <stop id="stop405" stop-color="#6e132f" offset=".76953"/>
   <stop id="stop407" stop-color="#6e132f" offset=".77344"/>
   <stop id="stop409" stop-color="#6d132e" offset=".77734"/>
   <stop id="stop411" stop-color="#6d132e" offset=".78125"/>
   <stop id="stop413" stop-color="#6d132e" offset=".78516"/>
   <stop id="stop415" stop-color="#6c132d" offset=".78906"/>
   <stop id="stop417" stop-color="#6c132d" offset=".79297"/>
   <stop id="stop419" stop-color="#6c122c" offset=".79688"/>
   <stop id="stop421" stop-color="#6b122c" offset=".80078"/>
   <stop id="stop423" stop-color="#6b122c" offset=".80469"/>
   <stop id="stop425" stop-color="#6a122b" offset=".80859"/>
   <stop id="stop427" stop-color="#6a122b" offset=".8125"/>
   <stop id="stop429" stop-color="#6a122b" offset=".81641"/>
   <stop id="stop431" stop-color="#69122a" offset=".82031"/>
   <stop id="stop433" stop-color="#69122a" offset=".82422"/>
   <stop id="stop435" stop-color="#69122a" offset=".82812"/>
   <stop id="stop437" stop-color="#681229" offset=".83203"/>
   <stop id="stop439" stop-color="#681229" offset=".83594"/>
   <stop id="stop441" stop-color="#671229" offset=".83984"/>
   <stop id="stop443" stop-color="#671128" offset=".84375"/>
   <stop id="stop445" stop-color="#671128" offset=".84766"/>
   <stop id="stop447" stop-color="#661128" offset=".85156"/>
   <stop id="stop449" stop-color="#661127" offset=".85547"/>
   <stop id="stop451" stop-color="#661127" offset=".85938"/>
   <stop id="stop453" stop-color="#651127" offset=".86328"/>
   <stop id="stop455" stop-color="#651126" offset=".86719"/>
   <stop id="stop457" stop-color="#641126" offset=".87109"/>
   <stop id="stop459" stop-color="#641126" offset=".875"/>
   <stop id="stop461" stop-color="#641125" offset=".87891"/>
   <stop id="stop463" stop-color="#631125" offset=".88281"/>
   <stop id="stop465" stop-color="#631125" offset=".88672"/>
   <stop id="stop467" stop-color="#631024" offset=".89062"/>
   <stop id="stop469" stop-color="#621024" offset=".89453"/>
   <stop id="stop471" stop-color="#621024" offset=".89844"/>
   <stop id="stop473" stop-color="#621023" offset=".90234"/>
   <stop id="stop475" stop-color="#611023" offset=".90625"/>
   <stop id="stop477" stop-color="#611023" offset=".91016"/>
   <stop id="stop479" stop-color="#601022" offset=".91406"/>
   <stop id="stop481" stop-color="#601022" offset=".91797"/>
   <stop id="stop483" stop-color="#601022" offset=".92188"/>
   <stop id="stop485" stop-color="#5f1022" offset=".92578"/>
   <stop id="stop487" stop-color="#5f1021" offset=".92969"/>
   <stop id="stop489" stop-color="#5f0f21" offset=".93359"/>
   <stop id="stop491" stop-color="#5e0f21" offset=".9375"/>
   <stop id="stop493" stop-color="#5e0f20" offset=".94141"/>
   <stop id="stop495" stop-color="#5d0f20" offset=".94531"/>
   <stop id="stop497" stop-color="#5d0f20" offset=".94922"/>
   <stop id="stop499" stop-color="#5d0f1f" offset=".95312"/>
   <stop id="stop501" stop-color="#5c0f1f" offset=".95703"/>
   <stop id="stop503" stop-color="#5c0f1f" offset=".96094"/>
   <stop id="stop505" stop-color="#5c0f1f" offset=".96484"/>
   <stop id="stop507" stop-color="#5b0f1e" offset=".96875"/>
   <stop id="stop509" stop-color="#5b0f1e" offset=".97266"/>
   <stop id="stop511" stop-color="#5b0f1e" offset=".97656"/>
   <stop id="stop513" stop-color="#5a0e1d" offset=".98047"/>
   <stop id="stop515" stop-color="#5a0e1d" offset=".98438"/>
   <stop id="stop517" stop-color="#590e1d" offset=".98828"/>
   <stop id="stop519" stop-color="#590e1d" offset=".99219"/>
   <stop id="stop521" stop-color="#590e1c" offset=".99609"/>
   <stop id="stop523" stop-color="#580e1c" offset="1"/>
  </linearGradient>
  <clipPath id="clip4">
   <path id="path526" d="m0 0h7453.9v6004.3h-7453.9z"/>
  </clipPath>
 </defs>
 <g id="surface722">
  <g id="g537" clip-path="url(#clip1)">
   <g id="g535" clip-path="url(#clip2)">
    <g id="g533" clip-path="url(#clip3)">
     <path id="path531" fill="url(#linear0)" d="m0 6001.8h7453.9v-5999.3l-7453.9 0.0039z"/>
    </g>
   </g>
  </g>
  <g id="g541" clip-path="url(#clip4)">
   <path id="path539" d="m1600 4899c-184.7 200.7-355.5 409.7-508.9 622.9-112.33 156-189.09 278.2-231.61 349.3-13.82-169 0.96-443 66.8-693.3 224.41-25.3 486.31-162.6 673.71-278.9zm-342-786.9c118.7-303.1 258-611.6 374.9-830.2 75.2-138.8 160.3-285.4 235.4-405.6 29.8 23.2 63.9 56.4 100.3 115.7l0.2 0.4c89.9 138.5 101 320.6 31.1 512.8-62.1 170.8-182.5 333.3-322 434.6l-5.4 3.9c-101.3 73.6-260.6 154-414.5 168.4zm-400.48 721c-126.4-53.4-251.74-170.9-354.95-333.4-297.14-488.3 27.89-1093.9 353.81-1368.1 195.12-168.2 494.72-347.9 750.22-347.9 60.9 0 116.8 10.5 166.6 31.3-78.7 123.8-165.9 272.3-241.1 410.5-162.7 299-314.9 611.9-429.6 882.6-81.6-9.8-144.48-34.8-214.06-84.5l-0.43-0.4-0.45-0.2c-9-5.7-16.2-11.1-22.55-15.8-12.11-9-21.68-16.1-33.42-16.1-5.88 0-11.58 1.9-16.34 5.4-8.52 6.1-13.57 15.5-14.23 26.5-1.41 23.4 17.05 49.3 34.91 65.9 53.71 54 136.39 95.7 224.47 113.8-56.6 144.2-82.65 219.8-136.9 387l-0.17 0.5c-3.13 10.8-6.45 22.1-9.89 33.9-17.67 60.2-39.29 134-55.92 209zm263.78 46.6c-38 0-75.2-2.8-110.7-8.4 12.1-51 31.5-118 48.8-178 9.1-31.6 17.8-61.4 24.8-87.1 41.2-129.8 80.2-252.7 134.5-390 166.6-8 362.2-80.2 513.5-190l5.4-3.9c181.3-131.7 343.3-330.4 433.2-531.4 50.1-111.8 77.1-220.9 80.4-324.2 3.6-114.7-22.5-219.6-77.4-311.9l-0.3-0.3c-48.5-77.2-124-136.6-184.1-166.1 149.5-238.5 340.4-524.9 498.1-747.5 1.9 141.9 16.1 320.6 30 479.9l0.1 0.5c119.8 1017.7-50 1664.9-550.7 2098.4-205.2 174-535.2 360-845.6 360zm3518.8-2585c-9.5-100.8 1.1-205.2 35-351.2 52.4-236.2 131.7-305 174.4-325 13.7-6.5 26.5-9.7 38.1-9.7 22.9 0 41 12.5 53.8 37.1 25.5 49.8 36.8 188.9-41.6 349.9-62.5 121.1-158.3 230.9-259.7 298.9zm948.8-149.8c-9.5-100.8 1.1-205.2 35-351.3 52.4-236.1 131.8-305 174.4-325 13.7-6.4 26.6-9.7 38.2-9.7 22.8 0 40.9 12.6 53.8 37.1 25.5 49.8 36.7 188.9-41.6 349.9-62.6 121.2-158.4 231-259.8 299zm921.7-79.8c-9.4-100.7 1.2-205 35.1-351.2 52.4-236.2 131.8-305.1 174.4-325.1 13.7-6.4 26.6-9.6 38.2-9.6 22.7 0 40.9 12.5 53.7 37 25.6 49.9 36.8 188.9-41.5 349.9-62.6 121.3-158.4 231.1-259.9 299zm-2965.9 157.7c28.9-242.2 64.1-493.6 105-749.4 4-25.8 7.9-51.3 11.7-76.4 40.5-264.4 75.5-492.71 118.6-656.37 36-132.89 99.3-237.47 139.8-261.8 12.8-7.73 23.7-11.67 32.4-11.67 5.4 0 19.9 0 34 34.58l0.2 0.5c29 65.35 24.8 203.13-12.2 398.49-35.3 186.27-97.9 412.47-181.1 653.97-56.9 162-159 431.7-233.5 628.6-5.1 13.6-10.1 26.7-14.9 39.5zm-577.5-1096.1c-23.1-279.25-19.8-502.77 10-665.02l0.1-0.46c22.4-141.17 66.5-253.98 121-309.59 36.3-34.43 76.6-54.185 110.7-54.185 30 0 53.1 15.095 69 44.815 41.2 86.06 33.8 223.38-21.5 397.07-59.4 187.03-158 371.5-230.3 493.37-4 6.4-9.2 14.7-15 24.1-12.6 20.2-28.9 46.4-44 69.9zm256.6-1126.7c-64.8 0-129.7 37.317-172.8 68.598-156.6 113.82-299.9 337.66-366.7 497.4-62.8 147.61-115.7 330.99-153 530.31-40.9 218.3-62.6 449.1-64.7 686.3-141.8 193.7-292.8 422.5-426.1 624.5-57 86.3-110.9 168.1-161.2 242.7-39-8.5-81.2-12.8-125.7-12.8-316.8 0-717.2 217.3-955.23 419.2-288.16 235.8-532.58 543.4-670.63 844-165.49 360.3-170.3 686.6-13.76 943.8 72.88 116.3 172.78 205.4 296.93 264.8 106.92 51.2 230.2 78.6 356.82 79.3-38.3 311.9-34.44 566.7 11.26 737.7l0.11 0.4 0.12 0.4c7.39 23.4 27.93 77.7 58.98 77.7 4.48 0 8.78-1.1 12.82-3.2 0.55-0.3 1.1-0.6 1.62-0.9 16.39-9.2 42.7-44.3 121.55-151.1 203.81-276.2 681.01-923.1 1397.5-1514.5 914.9-755.3 1956.5-1077.5 3482.9-1077.5 215.4 0 444.3 6.7 680.5 20 0.9 0 1.9 0.1 2.8 0.1 31.4 0 60.9-25 76.5-46.4 2.6-3.4 21.6-26.7 45.8-56.2 50.1-61.2 134-163.7 203.8-251.8 38.7-48.8 68.6-87.7 89.1-115.7 12-16.4 20.7-29 26.7-38.6 8-12.8 13.8-23.5 9.1-34.1-2.9-6.6-9.2-10.9-16.4-11.3-157.1-8.9-314.4-13.3-467.8-13.3-836.2 0-1610.2 130.7-2300.4 388.7-550.2 205.6-1106.7 522-1656.1 941.3 209.8-271.7 366.6-557.9 466.8-852.9 58.7-81.8 114-159.8 150.5-218.5-5.2 40.7-10.7 88.4-14.8 138-6.5 87.1-12.1 211.9-2.2 311.7l0.1 0.7c2.6 18.3 8.5 61.1 48.4 61.1 23.3 0 55-15.6 113.1-55.7l0.4-0.3c4.9-3.7 11-8 18-12.9 58.4-41.4 116.3-84.7 128.3-121.4 31.3-86.2 56.6-159 81.1-229.5 33-94.6 64.1-184.1 107.8-301.5 48.2-130.5 94.3-233.6 133.4-298.2 44.2-69.8 69.9-80.2 76.7-81.7 1.4-0.3 2.6-0.4 3.7-0.4 2.7 0 3.8 0.8 4.6 1.7 2.2 2.6 4.4 8.9 3.1 18.7-6.8 54.5-17.1 123.8-27.1 190.9-2.8 18.3-5.5 36.6-8.2 54.8-18.7 131.2-26.5 197.3 0.2 266.5 25.8 64.9 73.1 100.7 133.4 100.7 42.3 0 91.6-17.5 146.4-52.2 81.5-52.1 155.6-146.1 220.4-279.4 65.3 63.5 234.4 126.9 416.8 126.9 116.7 0 285.4-26.3 426-151.6 33.4-29.8 68.3-72.6 103.9-127.3 63.7 64.2 234.6 129 419 129 116.7 0 285.3-26.3 425.9-151.6 20.9-18.6 42.5-42.5 64.5-71.1 2.7 3.3 5.3 6.4 7.9 9.2 59.8 65.8 234.5 133.7 423.4 133.7h0.1c116.7 0 285.3-26.3 425.9-151.5 132.7-118.3 252-408.2 297.2-527.4 36.7-96.9 68.2-194.5 88.8-274.7 32.9-128.3 21.1-144.4 15.4-152.2-7-9.5-15-11.5-20.5-11.5-18.9 0-26.8 18.6-42.6 55.7l-0.3 0.6-0.2 0.6c-35.1 103.3-100.9 246-163.8 355.1-147.1 243.2-292.7 373.5-379.8 414.3-27.3 12.8-61.4 19.6-98.6 19.6h-0.1c-72.4 0-144-25-177.9-62.3-20.6-22.6-35.1-57.6-39.3-83.2 144.8-93.8 369.2-275.7 489.4-414.6l0.2-0.2c50.5-60.2 122-150.2 160.7-236.6 41.6-93.2 39.7-170.2-5.5-229l-0.2-0.2c-35.5-44.5-93.9-68-168.8-68-75.6 0-164 23.5-263 69.9l-6.5 3.1-0.7 0.3c-117.1 67.2-222.2 144.8-312.3 230.5-72.3 68.7-135.1 142.9-186.8 220.3-84.2 126.2-110.8 218.9-114 230.9-37.4 95-31.7 189.8-19.3 255.5-64.4 68.8-127.8 119.7-179.1 143.8-27.3 12.8-61.4 19.6-98.6 19.6-72.5 0-144.1-25.1-178-62.3-20.6-22.7-35-57.7-39.2-83.3 144.8-93.8 369.2-275.7 489.3-414.5l0.2-0.2c50.5-60.2 122-150.3 160.6-236.7 41.7-93.1 39.8-170.1-5.4-228.9l-0.2-0.3c-35.5-44.5-93.9-68-168.8-68-75.6 0-164 23.5-263 70l-6.5 3-0.6 0.4c-117.2 67.2-222.3 144.7-312.4 230.5-72.2 68.7-135.1 142.8-186.7 220.3-84.2 126.2-110.8 218.9-114.1 230.9-42.2 107.4-30.7 214.1-12.2 287.7-75.3 87.3-152.7 153.3-213.3 181.7-27.3 12.8-61.3 19.5-98.6 19.5-72.4 0-144-25-177.9-62.3-20.6-22.6-35.1-57.7-39.3-83.2 144.8-93.8 369.2-275.7 489.3-414.5l0.2-0.2c50.5-60.2 122.1-150.3 160.7-236.7 41.6-93.1 39.7-170.2-5.5-229l-0.2-0.2c-35.5-44.5-93.8-68-168.8-68-75.5 0-164 23.5-262.9 69.9l-6.5 3.1-0.7 0.3c-117.1 67.3-222.2 144.8-312.3 230.6-72.2 68.7-135.1 142.8-186.7 220.2-84.3 126.3-110.9 219-114.1 230.9-58.3 148.3-18.6 312 34.9 411.3-15.9 33.6-31.2 62.7-45.5 86.6l-0.1 0.3c-21.7 37.7-47.4 58-58.1 58.5-20.7-1.5-22.8-40.1-22.3-63.1v-0.4c-0.1-38.7 6-86.1 15.2-157.9 1.5-11.2 3-22.9 4.5-35.2 15.3-114.1 26.4-222-4-288.2l-0.2-0.5-0.3-0.5c-24-44.7-62.4-68.4-110.9-68.4-36.9 0-78.6 13.8-123.8 41.1-187.8 113-296.4 385.4-332.1 475.1-44.7 116.1-86.5 230.2-117.4 320 1.6-20.7 3.1-41 4.6-60.9 15.3-204.4 27.4-366 41.7-469.8 16.8-58.1 126.8-298.6 233.3-531.2 57.6-125.9 117.2-256.2 160.8-354.9 99.7-231 172.5-448.1 210.4-627.79 45.6-215.85 41.7-377.41-11.4-480.3l-0.1-0.27c-30.1-55.8-76.4-87.76-127.2-87.76-25.1 0-50.4 7.59-75.2 22.54-104.1 62.74-198.6 184.16-280.7 360.95-71.6 157.54-140.3 343.33-198.7 537.13-72.1 239.2-128.5 489-167.7 742.5-36.5 234.1-71.4 500.5-95.7 731-12 36.2-48.5 96.7-89.2 158.4 64.2-295.6 71.2-596.4 20.7-895.5l-119-752.2c5.6-7.8 11.4-15.6 17.1-23.6 31.2-42.9 63.4-87.3 90-133.5 120.9-200.02 214.7-407.26 264.1-583.41 54.8-195.13 54.4-347.32-0.8-440.1-33.9-57.259-80.6-86.298-139-86.298zm-2368 5887.1l8-13.4c44.46-74.3 120.69-195.1 231.32-348.9 153.1-212.6 324.2-422 508.6-622.4l-6.3-7.7c-112.8 70-221.3 128.3-322.4 173.3-131 58.3-248.5 93.6-349.26 104.9l-3.41 0.4-0.87 3.3c-30.38 115.5-52.31 246.2-63.42 378-9.65 114.3-10.9 226.9-3.53 317l1.27 15.5m394.52-1769.3l8.1-0.7c37.1-3.5 76.2-11 116.4-22.2 36.6-10.3 74.4-23.8 112.1-40.2 66.1-28.6 133-66.6 188.5-106.9l5.5-3.9c140.3-101.9 261.3-265.3 323.7-437 70.4-193.6 59.2-377.3-31.5-517.2l-0.3-0.4c-40-65.2-77-97.9-101.4-116.9l-4.4-3.4-2.9 4.7c-75 119.9-160.9 267.9-235.6 405.9-116.4 217.5-256.6 528.1-375.2 830.7l-3 7.5m-397.14-990.1c-84.1 70.8-165.52 161.3-235.45 261.8-36.77 52.8-70.18 108.1-99.3 164.4-30.61 59.1-56.62 119.6-77.31 179.8-45.36 131.9-65.36 261.4-59.43 385 6.63 138.3 45.87 267.3 116.63 383.6h0.03l0.03 0.1c51.54 81.1 108.59 151.3 169.56 208.6 61.02 57.3 124.15 99.9 187.65 126.8l5.53 2.3 1.3-5.9c16.59-74.8 38.34-149 55.82-208.6l0.01-0.1 0.24-0.8c3.39-11.6 6.6-22.5 9.65-33.1l0.15-0.4c54.47-167.9 80.43-243.1 136.83-386.7l2.2-5.5-5.9-1.2c-42.8-8.8-85.69-23.7-123.86-43-38.23-19.3-72.13-43.4-98.06-69.5h-0.08l-0.07-0.1c-16.96-15.7-34.62-40.3-33.32-61.9 0.57-9.4 4.89-17.5 12.2-22.8 3.95-2.9 8.57-4.4 13.38-4.4 10.08 0 18.62 6.3 30.44 15.1l0.13 0.1c6.39 4.8 13.63 10.2 22.75 15.9l0.32 0.2 0.3 0.2c35.51 25.4 69.39 44.3 103.58 57.9 34.29 13.6 71.19 22.6 112.79 27.6l3.7 0.5 1.5-3.5c114.6-270.5 267.1-583.8 429.4-882.2 74.7-137.3 162.5-286.8 240.9-410.2l3.2-5-5.5-2.3c-50.3-21-107-31.7-168.5-31.7-256.9 0-557.6 180.3-753.44 349m1316.1-270.6l0.2 0.4c54.4 91.3 80.3 195.3 76.7 309-3.2 102.6-30.1 211.1-79.9 322.4-89.7 200.2-251 398.1-431.6 529.3l-5.4 3.9c-73.8 53.6-160.2 99.4-249.8 132.6-89.4 33.1-179.7 52.6-261.1 56.5l-3.2 0.2-1.2 3c-54.4 137.6-93.3 260.3-134.6 390.3v0.1 0.1c-7 25.6-15.7 55.5-24.8 87.1-17.2 59.5-36.7 127-48.9 178.2l-1.2 5.2 5.3 0.9c35.8 5.6 73.3 8.4 111.5 8.4 311.8 0 642.9-186.6 848.8-361.2h0.1c502.1-434.8 672.4-1083.3 552.4-2102.7l-0.1-0.5c-13.7-156.8-28.1-336.4-30-479.5l-0.2-15.3-8.9 12.5c-158.2 223.2-349.1 509.8-498.2 747.7l-3 4.7 5 2.5c55.1 27 131.8 84.3 182.1 164.2m2501-914.7c-17.3 74-28.4 137.2-34 193.1-5.6 56.4-6 108.6-1.2 159.7l0.8 8.3 7-4.6c50.2-33.7 100.5-78.8 145.4-130.4 45.1-51.8 85.2-110.8 115.9-170.4l0.1-0.1v-0.1c44.3-90.8 57.2-168.9 60.3-218.4 3.4-55.5-3.6-106.3-18.7-136-6.8-12.9-15.2-22.8-24.8-29.5-9.8-6.8-21.1-10.2-33.5-10.2-12.3 0-25.8 3.4-40.2 10.1-20.9 9.8-52.8 32.3-85.6 83.3-37.6 58.3-68.4 140.8-91.5 245.2m914.4 211.3l7-4.7c50.2-33.7 100.5-78.7 145.4-130.4 45.1-51.8 85.2-110.7 116-170.4v-0.1h0.1c44.2-90.9 57.1-169 60.3-218.5 3.4-55.5-3.6-106.3-18.7-135.9-6.9-13-15.2-22.9-24.8-29.6-9.9-6.7-21.2-10.2-33.5-10.2-12.4 0-25.9 3.4-40.3 10.2-20.9 9.8-52.7 32.2-85.6 83.3-37.6 58.3-68.4 140.8-91.6 245.1-17.1 74.1-28.2 137.3-33.8 193.2-5.7 56.3-6.1 108.6-1.3 159.6l0.8 8.4m921.8-79.8l6.9-4.7c50.3-33.6 100.6-78.7 145.5-130.3 45.1-51.8 85.2-110.8 116-170.5v-0.1c44.3-90.9 57.3-169 60.3-218.5 3.4-55.5-3.5-106.2-18.7-135.9-6.8-12.9-15.2-22.9-24.8-29.5-9.8-6.8-21.1-10.2-33.4-10.2s-25.9 3.4-40.3 10.1c-20.9 9.8-52.8 32.3-85.6 83.3-37.6 58.3-68.4 140.8-91.6 245.2-17.2 74.1-28.3 137.4-33.9 193.3-5.6 56.3-6.1 108.5-1.3 159.5l0.9 8.3m-2957.2 150.7l14.5-38.2 0.5-1.3c74.5-196.9 176.5-466.7 233.5-628.7 83.3-241.8 146-468.2 181.3-654.71 18.5-97.5 28.9-181.18 31-248.82 2.1-68.04-4.3-119.4-19.1-152.64l-0.1-0.41c-13.9-33.75-28.7-37.64-38.7-37.64-9.6 0-21.4 4.16-35 12.35-21.3 12.85-48 46.37-73.3 92.1-35.4 63.79-56.9 129.14-68.7 172.72-43.2 163.89-78.2 392.35-118.7 656.95-3.8 25.1-7.7 50.5-11.7 76.3-40.9 255.3-76.2 507.5-105.1 749.6l9.6 2.4m-577-1763.8c-29.8 162.57-33.2 386.69-10.1 666.29l1.2 14.7 8-12.4c15.2-23.5 31.1-49.3 44-69.9 5.4-8.6 10.9-17.5 15-24.1l0.1-0.1c72.4-122.09 171.2-306.97 230.8-494.46 55.6-174.92 62.9-313.52 21.2-400.78l-0.1-0.09v-0.09c-8.3-15.55-18.7-27.44-30.9-35.35-12.3-8.003-26.6-12.073-42.5-12.073-35.3 0-77 20.263-114.2 55.563v0.09l-0.1 0.05c-55.2 56.34-99.8 170.16-122.3 312.24l-0.1 0.41m251.5-455.79c56.5 0 101.8 28.172 134.7 83.825 54.5 91.592 54.7 242.41 0.3 436.16-49.3 175.79-142.9 382.58-263.5 582.29h-0.1v0.1c-26.5 45.9-58.7 90.2-89.7 133-5.6 7.7-11.4 15.7-17.1 23.6l-1.2 1.6 0.3 2.1 119 752.2c50.3 298.1 43.3 598.8-20.6 893.6l9 3.8c50-75.9 79.4-128.1 89.8-159.5l0.2-0.6v-0.5c24.3-230.4 59.1-496.8 95.6-730.8 39.2-253.2 95.5-502.8 167.5-741.7 58.4-193.7 127-379.22 198.5-536.53 81.7-175.83 175.5-296.56 278.7-358.75 24.1-14.49 48.6-21.86 72.7-21.86 48.9 0 93.6 31.05 122.8 85.15l0.1 0.18c52.6 101.84 56.2 262.31 10.9 476.96-37.9 179.35-110.5 396.15-210.1 626.85-43.6 98.8-103.1 228.9-160.7 354.8-106.6 232.8-216.7 473.5-233.6 531.9l-0.1 0.4-0.1 0.3c-14.3 104-26.4 265.6-41.7 470.1l-0.1 1.8c-1.5 19.3-2.9 39-4.4 59.1l9.7 2c31.4-91.5 73.1-205 117.2-319.8 35.6-89.2 143.8-360.5 330.1-472.7 44.4-26.7 85.2-40.3 121.2-40.3 46.6 0 83.4 22.7 106.5 65.8l0.2 0.4 0.2 0.3c29.8 64.9 18.7 172.1 3.6 285.5-1.6 12.3-3.1 24-4.5 35.1v0.1c-9.3 72-15.4 119.5-15.3 158.4v0.4c-0.7 30.2 3.4 66.5 26.9 68.2l0.3 0.1 0.3-0.1c13.8-0.6 40.8-23.6 62.2-60.9l0.1-0.3c14.4-24 29.8-53.3 45.7-87.1l1.1-2.3-1.2-2.2c-29.5-54.8-50.4-120.6-58.8-185.5-4.9-37.5-5.6-74.5-2.2-110 3.8-39.2 12.6-76.7 26.3-111.6l0.1-0.2 0.1-0.3c2.8-10.2 29.2-103.2 113.4-229.4 51.5-77.1 114.1-151 186-219.4 89.8-85.5 194.6-162.8 311.4-229.8l0.4-0.3 6.4-3c98.2-46 186-69.4 260.8-69.4 73.4 0 130.4 22.9 164.9 66.1l0.2 0.2c44 57.3 45.6 132.6 4.8 223.9-38.3 85.8-109.6 175.5-159.9 235.4l-0.2 0.2c-55 63.7-138.4 143.1-234.8 223.6-87.4 73.1-179.8 142.4-253.4 190l-2.7 1.8 0.5 3.2c4.1 25.1 18.2 61.3 40.5 85.8 34.8 38.2 107.8 63.9 181.6 63.9 38 0 72.8-6.9 100.7-20 61-28.6 139.3-95.2 215-183l1.7-1.9-0.7-2.5c-17.7-70.7-30.1-177.5 12.1-284.7l0.1-0.3 0.1-0.2c2.7-10.2 29.1-103.2 113.3-229.5 51.5-77.1 114.1-150.9 186-219.4 89.9-85.5 194.6-162.8 311.4-229.8l0.5-0.2 6.3-3c98.3-46.1 186.1-69.5 260.9-69.5 73.3 0 130.3 22.9 164.8 66.1l0.2 0.2c44.1 57.2 45.7 132.6 4.9 223.9-38.3 85.8-109.6 175.5-159.9 235.4l-0.2 0.2c-55 63.7-138.5 143.1-234.8 223.6-87.4 73.1-179.8 142.4-253.4 190l-2.8 1.8 0.6 3.2c4.1 25.1 18.2 61.4 40.4 85.8 34.8 38.3 107.9 64 181.7 64 37.9 0 72.8-7 100.8-20.1 51.6-24.2 115.8-75.7 180.6-144.9l1.6-1.8-0.4-2.5c-11.9-62.9-18.3-157.8 19.1-252.8v-0.3l0.1-0.2c2.7-10.2 29.2-103.2 113.4-229.4 51.5-77.2 114.1-151 186-219.4 89.8-85.5 194.6-162.8 311.4-229.8l0.5-0.3 6.3-3c98.3-46.1 186.1-69.4 260.9-69.4 73.3 0 130.4 22.8 164.9 66.1l0.1 0.2c44.1 57.2 45.7 132.5 4.9 223.8-38.4 85.9-109.7 175.6-160 235.5l-0.1 0.2c-55.1 63.6-138.5 143.1-234.8 223.6-87.5 73.1-179.9 142.3-253.5 190l-2.8 1.8 0.6 3.2c4.2 25.1 18.2 61.3 40.5 85.8 34.8 38.2 107.8 63.9 181.7 63.9 37.9 0 72.7-6.9 100.7-20.1 87.8-41.1 234.3-172.1 382-416.3h0.1c63-109.3 128.9-252.4 164.1-356l0.2-0.4 0.2-0.5c7.9-18.6 13.6-32 19.7-40.9 5.7-8.3 11-11.7 18.3-11.7 4.3 0 10.7 1.6 16.5 9.4 4.8 6.6 16.1 22.1-16.2 148.1-20.6 80-52 177.3-88.7 274.1-45 118.8-163.9 407.9-295.8 525.4-139.5 124.3-306.8 150.3-422.7 150.3-45 0-91-3.9-136.6-11.5-42.3-7.2-83.3-17.4-121.9-30.4-72.6-24.5-131.4-57.3-161.2-90.1-2.5-2.8-5.1-5.8-7.7-9.1l-4-4.9-3.9 5c-21.8 28.4-43.2 52.1-63.8 70.5-139.4 124.2-306.8 150.3-422.6 150.3-44.1 0-89-3.7-133.5-11.1-41.4-6.8-81.7-16.6-119.7-29.1-71.3-23.4-130.4-55.2-162.2-87.3l-4.4-4.4-3.4 5.2c-35.4 54.3-70 96.8-103 126.3-139.5 124.2-306.8 150.3-422.7 150.3-184.7 0-350.8-64.7-413.3-125.5l-5-4.8-3 6.2c-64.4 132.5-137.9 225.8-218.5 277.4-54 34.1-102.4 51.4-143.8 51.4-28.9 0-54.7-8.4-76.6-25-22.1-16.7-39.6-41.1-52.1-72.5-26.2-68.1-18.5-133.7 0.1-264 2.4-16.5 4.9-33.1 7.4-49.8l0.7-4.9c10-67.1 20.3-136.4 27.1-191.1 1.3-9.6-0.3-18.1-4.2-22.6-2.1-2.3-4.8-3.4-8.4-3.4-1.4 0-3 0.1-4.8 0.5-9.3 2.1-35.8 14.5-79.8 83.9h-0.1v0.1c-39.2 64.9-85.5 168.3-133.7 299.1-43.8 117.6-75 207-107.9 301.6l-0.4 1c-24.4 70.1-49.6 142.6-80.7 228.4l-0.1 0.1v0.1c-5.1 15.7-20 34.3-45.3 56.7-23.2 20.5-52.7 42-81.1 62.1-6.6 4.7-12.9 9.2-18 12.9l-0.4 0.3c-57.1 39.4-88 54.8-110.2 54.8-15.3 0-26.4-6.9-33.8-21-6.3-12.2-8.4-26.9-9.6-35.8l-0.1-0.5c-9.9-99.5-4.3-223.9 2.2-310.8 3.5-42.2 8.5-88.6 14.8-137.7l-9.2-3.3c-37.8 60.8-97.4 144.5-150.4 218.2l-0.4 0.6-0.2 0.7c-99.9 293.9-256.7 580.4-466.1 851.4l7 7c548.8-418.8 1105.6-735.3 1654.9-940.5 689.6-257.8 1463-388.4 2298.6-388.4 153.3 0 310.5 4.4 467.5 13.3 5.4 0.3 10 3.5 12.1 8.3 3.4 7.7-0.1 15.6-8.8 29.5-5.8 9.4-14.5 21.9-26.5 38.2-20.4 28-50.3 66.8-88.9 115.6-69.7 88-153.6 190.4-203.7 251.6l-0.1 0.1-0.8 0.9c-24.7 30.2-42.5 52-45.1 55.5-15 20.5-43 44.4-72.5 44.4-0.9 0-1.8-0.1-2.5-0.1-236.3-13.3-465.3-20-680.8-20-1527.7 0-2570.2 322.6-3486 1078.6-717 591.8-1194.5 1239-1398.4 1515.4-77.13 104.5-104.57 141.1-120 149.7l-0.15 0.1-0.14 0.1c-0.37 0.2-0.79 0.5-1.21 0.7-3.31 1.7-6.84 2.6-10.5 2.6-28.52 0-48.7-56.8-54.22-74.2l-0.08-0.3-0.08-0.2c-45.49-170.3-49.33-424.8-11.12-735.9l0.68-5.6h-5.62c-125.86-0.7-248.51-27.9-354.69-78.8-123.27-59-222.48-147.5-294.85-263-155.55-255.6-150.69-580.3 14.07-939.1 137.73-299.9 381.67-606.8 669.24-842.2h0.04 0.03c237.4-201.3 636.5-418 952-418 44.1 0 86 4.3 124.6 12.7l3.3 0.8 1.9-2.9c50.2-74.4 103.9-155.8 160.7-241.9l0.6-0.8c133.2-201.9 284.2-430.7 425.9-624.3l1-1.3v-1.7c2.1-236.8 23.8-467.4 64.6-685.4 37.3-198.94 90.1-381.95 152.7-529.25 66.6-159.18 209.2-382.07 365-495.34 42.5-30.821 106.5-67.587 169.9-67.587" fill="#be1e96"/>
  </g>
 </g>
</svg>
