<?xml version="1.0" encoding="UTF-8"?>
<svg width="7453.9pt" height="6004.3pt" version="1.2" viewBox="0 0 7453.93 6004.31" xmlns="http://www.w3.org/2000/svg" xmlns:cc="http://creativecommons.org/ns#" xmlns:dc="http://purl.org/dc/elements/1.1/" xmlns:rdf="http://www.w3.org/1999/02/22-rdf-syntax-ns#">
<metadata>
<rdf:RDF>
<cc:Work rdf:about="">
<dc:format>image/svg+xml</dc:format>
<dc:type rdf:resource="http://purl.org/dc/dcmitype/StillImage"/>
<dc:title/>
</cc:Work>
</rdf:RDF>
</metadata>
<defs>
<clipPath id="e">
<path d="m2 2h7450v6e3h-7450z"/>
</clipPath>
<clipPath id="d">
<path d="m3209 94.961c-34.738 0-75.738 20-112.47 54.867-54.941 56.031-99.289 169.36-121.74 311.01l-0.066406 0.42188c-29.793 162.29-33.172 386.24-10.031 665.61l0.60938 7.3398 3.9805-6.1992c15.109-23.48 31.09-49.172 43.93-69.82 5.6602-9.0898 10.949-17.613 15.039-24.102 72.371-122.04 171.09-306.75 230.64-494.01 55.43-174.31 62.789-312.26 21.289-398.93l-0.046875-0.089844c-16.281-30.59-40.211-46.098-71.133-46.098zm3549.3 1281.7c-12 0-25.199 3.3398-39.262 9.9297-43.039 20.191-123.11 89.488-175.77 326.74-34.039 146.65-44.539 251.93-35.109 351.99l0.39844 4.1797 3.4805-2.3281c50.062-33.523 100.19-78.461 144.98-129.94 44.93-51.652 84.93-110.43 115.67-169.98 78.809-161.87 67.34-301.9 41.598-352.15-13.398-25.512-32.23-38.441-55.988-38.441zm-921.81 79.762c-11.988 0-25.188 3.3398-39.227 9.918-43.051 20.211-123.14 89.539-175.76 326.74-34.031 146.5-44.531 251.78-35.102 352l0.39062 4.1836 3.4922-2.332c50.059-33.539 100.19-78.48 144.97-129.97 44.93-51.652 84.922-110.41 115.65-169.94 78.812-161.86 67.363-301.91 41.652-352.17-13.422-25.512-32.281-38.43-56.062-38.43zm-1884.3-991.77c-9.1523 0-20.5 4.0508-33.75 12.043-40.84 24.578-104.69 129.79-140.84 263.29-43.219 163.76-78.18 392.14-118.66 656.58l-0.050781 0.36328c-3.8281 24.988-7.7109 50.359-11.668 76.109-40.832 255.19-76.184 507.36-105.06 749.47l4.8203 1.1914 14.93-39.48c74.512-196.93 176.54-466.62 233.5-628.66 83.262-241.68 145.93-467.95 181.23-654.35 37.102-195.86 41.27-334.18 12.059-400l-0.1875-0.4375c-14.812-36.113-30.441-36.113-36.32-36.113zm935.43 1141.6c-11.988 0-25.18 3.3398-39.211 9.9102-43.059 20.199-123.16 89.52-175.78 326.75-34.051 146.48-44.543 251.75-35.07 351.99l0.38672 4.1797 3.4922-2.3398c50.059-33.539 100.18-78.48 144.96-129.96 44.91-51.637 84.887-110.4 115.61-169.91 78.82-161.84 67.34-301.9 41.598-352.18-13.348-25.508-32.188-38.438-55.988-38.438zm-3021.4 1268.7c-74.949 119.89-160.79 267.78-235.5 405.75-116.34 217.46-256.55 527.89-375.08 830.43l-1.4805 3.7812 4.043-0.38281c71.34-6.6562 147.97-27.578 227.77-62.18 65.84-28.539 132.61-66.41 187.99-106.64l5.4609-3.8828c139.94-101.67 260.63-264.59 322.87-435.84 70.098-192.91 58.98-375.83-31.332-515.04l-0.21094-0.33984c-39.887-64.871-76.68-97.449-100.88-116.31l-2.1797-1.7031zm-259.59-93.789c-256.22 0-556.39 180.01-751.87 348.46-326.46 274.66-652.24 881.71-354.31 1371.3 51.457 81.031 108.38 151.05 169.2 208.16 60.797 57.09 123.68 99.582 186.91 126.29l2.7656 1.168 0.64844-2.9297c16.609-74.961 38.371-149.19 55.859-208.83l0.37891-1.293c3.3125-11.32 6.5117-22.219 9.5312-32.648l0.15625-0.51172c54.5-167.89 80.492-243.16 136.88-386.8l1.0898-2.7734-2.9102-0.59766c-88.461-18.129-169.83-59.359-223.25-113.13l-0.074219-0.070312c-17.379-16.141-35.469-41.402-34.113-63.891 0.61328-10.199 5.3008-18.949 13.191-24.641 4.3984-3.2383 9.5391-4.9414 14.887-4.9414 10.906 0 20.18 6.9023 31.918 15.641l0.16406 0.12109c6.3516 4.7305 13.547 10.078 22.551 15.75l0.38281 0.23828 0.375 0.26953c70.578 50.5 132.93 75.133 215.18 85.043l1.8711 0.21875 0.73047-1.7305c114.64-270.57 267.17-583.95 429.5-882.41 74.75-137.31 162.59-286.88 241.02-410.37l1.5898-2.5-2.7422-1.1367c-50-20.891-106.36-31.48-167.51-31.48zm878.82-841.77c-158.15 223.21-349.02 509.68-498.14 747.62l-1.4727 2.3516 2.4922 1.2188c55.371 27.172 132.55 84.832 183.11 165.18l0.21094 0.33984c54.699 91.762 80.621 196.21 77.039 310.44-3.2305 102.96-30.191 211.74-80.129 323.33-89.789 200.62-251.45 398.88-432.43 530.33l-5.3516 3.8711c-73.988 53.719-160.58 99.68-250.41 132.9-89.68 33.18-180.21 52.789-261.81 56.719l-1.6094 0.082031-0.58984 1.5c-54.332 137.48-93.281 260.19-134.51 390.11-7.0781 25.762-15.711 55.609-24.828 87.219-17.203 59.551-36.691 127.02-48.871 178.08l-0.62109 2.6289 2.6719 0.42188c35.648 5.6094 73.02 8.4492 111.07 8.4492 311.17 0 641.69-186.29 847.27-360.64 501.4-434.15 671.51-1082 551.56-2100.6l-0.050782-0.48828c-13.77-156.82-28.109-336.47-30.059-479.66l-0.10156-7.6719zm-886.76 2957.4c-182.14 113.01-446.69 253.07-672.66 278.56l-1.6992 0.19922-0.4375 1.6484c-30.34 115.34-52.246 245.9-63.352 377.56-9.6328 114.18-10.883 226.6-3.5273 316.55l0.63672 7.7695 4-6.6875c44.484-74.359 120.75-195.28 231.46-349.1 153.09-212.69 324.25-422.19 508.74-622.68zm-760.48 1104.9c-29.395 0-49.371-53.098-56.594-75.938l-0.10156-0.32031-0.09375-0.35156c-45.57-170.59-49.441-425.38-11.199-736.82l0.34375-2.7891-2.8125-0.011719c-126.23-0.6875-249.25-28.008-355.75-79.02-123.72-59.258-223.27-148.05-295.9-263.92-156.02-256.35-151.21-581.9 13.922-941.45 137.89-300.23 382.07-607.53 669.93-843.11 237.73-201.6 637.54-418.55 953.67-418.55 44.23 0 86.328 4.2891 125.13 12.75l1.6602 0.35938 0.94141-1.4023c50.18-74.477 103.92-155.92 160.83-242.14l0.39844-0.61328c133.24-201.89 284.26-430.72 426.05-624.42l0.47266-0.64062 0.007813-0.80859c2.082-237.02 23.832-467.78 64.652-685.88 37.27-199.13 90.129-382.32 152.85-529.76 66.68-159.5 209.61-382.86 365.85-496.38 42.789-31.07 107.25-68.102 171.36-68.102 57.441 0 103.46 28.609 136.79 85.051 54.949 92.188 55.152 243.69 0.60938 438.14-49.367 175.97-143.06 382.98-263.82 582.87-26.617 46.121-58.789 90.43-89.898 133.29-5.7695 7.9375-11.469 15.809-17.07 23.59l-0.60938 0.82812 119.15 753.2c50.332 298.46 43.371 599.43-20.668 894.57l4.5273 1.9102c49.863-75.699 79.133-127.71 89.492-158.99l0.078126-0.25 0.03125-0.26953c24.289-230.44 59.141-496.84 95.629-730.89 39.18-253.39 95.562-503.08 167.6-742.12 58.379-193.76 127.05-379.39 198.59-536.84 81.93-176.28 176.03-297.34 279.7-359.81 24.461-14.742 49.352-22.223 73.973-22.223 49.797 0 95.34 31.52 124.95 86.461l0.12891 0.25c52.859 102.33 56.609 263.36 11.16 478.61-37.898 179.49-110.6 396.42-210.24 627.33-43.602 98.77-103.17 228.95-160.78 354.83-106.48 232.68-216.59 473.28-233.47 531.57l-0.050781 0.17188-0.019532 0.17969c-14.262 103.83-26.363 265.4-41.68 469.96-1.4922 19.879-3.0117 40.168-4.5703 60.859l4.8594 1c31.461-91.48 73.117-205.08 117.31-319.87 35.609-89.34 144.01-361.28 331.09-473.92 44.82-27.008 86.031-40.707 122.49-40.707 47.559 0 85.148 23.219 108.73 67.16l0.22266 0.41797 0.19922 0.42969c30.148 65.5 19.012 173.03 3.8008 286.79-1.5625 12.312-3.0625 24.043-4.4922 35.172-9.2305 71.91-15.32 119.42-15.23 158.23l-0.007813 0.41797c-0.69141 29.043 3.0078 64.023 24.59 65.633l0.14844 0.007812h0.16016c12.77-0.61719 39.391-23.648 60.121-59.77l0.14844-0.25c14.332-23.961 29.66-53.199 45.551-86.879l0.53906-1.1406-0.59766-1.1094c-29.652-55.031-50.641-121.22-59.102-186.37-10.418-80.281-2.2305-155.24 24.34-222.81l0.050781-0.13281 0.039063-0.13672c2.75-10.223 29.312-103.58 113.74-230.13 51.57-77.289 114.27-151.26 186.35-219.85 89.953-85.602 194.88-163.04 311.86-230.17l0.54688-0.30859 6.4023-3.0195c98.609-46.23 186.72-69.672 261.89-69.672 74.16 0 131.86 23.191 166.87 67.051l0.19141 0.25c44.609 57.969 46.34 134.15 5.1406 226.39-38.461 86.121-109.9 175.98-160.29 236.08l-0.17188 0.20312c-120.08 138.76-342.8 319.51-488.75 414.07l-1.3711 0.89062 0.26953 1.6094c4.043 24.672 17.934 60.363 39.883 84.461 34.359 37.762 106.61 63.121 179.79 63.121 37.551 0 72.012-6.8398 99.641-19.801 60.621-28.398 138.65-94.848 214.09-182.31l0.83984-0.98047-0.30859-1.2617c-17.863-71.02-30.25-178.33 12.156-286.19l0.050781-0.13281 0.042969-0.13672c2.75-10.23 29.27-103.58 113.72-230.15 51.551-77.289 114.24-151.26 186.33-219.86 89.961-85.602 194.9-163.04 311.9-230.15l0.53906-0.3125 6.418-3.0195c98.613-46.23 186.72-69.68 261.89-69.68 74.16 0 131.86 23.191 166.86 67.059l0.17188 0.22266c44.648 57.988 46.391 134.16 5.1797 226.4-38.469 86.121-109.91 175.97-160.31 236.06l-0.17188 0.19922c-120.03 138.75-342.78 319.49-488.77 414.07l-1.3711 0.87891 0.26953 1.6211c4.0508 24.707 17.941 60.418 39.844 84.508 34.379 37.75 106.66 63.109 179.84 63.109 37.566-0.007813 72.027-6.8477 99.68-19.797 51.387-24.121 115.25-75.391 179.82-144.36l0.86719-0.92969-0.23828-1.25c-11.969-63.207-18.359-158.61 19.18-254.13l0.050782-0.12891 0.039062-0.14063c2.7383-10.219 29.301-103.58 113.73-230.14 51.559-77.289 114.26-151.25 186.34-219.84 89.969-85.609 194.9-163.04 311.9-230.15l0.54297-0.3125 6.4492-3.0273c98.609-46.23 186.72-69.68 261.89-69.68 74.16 0 131.87 23.188 166.89 67.066l0.19141 0.24219c44.609 57.969 46.352 134.14 5.1406 226.37-38.492 86.16-109.94 176-160.33 236.07l-0.16016 0.17969c-120.08 138.8-342.83 319.53-488.81 414.08l-1.3789 0.89062 0.26953 1.6211c4.0781 24.719 17.988 60.438 39.891 84.48 34.367 37.758 106.64 63.129 179.82 63.117 37.57 0 72.039-6.8477 99.668-19.809 87.5-41.02 233.51-171.66 380.92-415.34 62.949-109.21 128.85-252.06 164.01-355.52l0.17969-0.54297 0.23047-0.54688c15.383-36.082 23.09-54.18 40.312-54.18 4.918 0 12.129 1.8281 18.52 10.52 5.0195 6.8672 16.789 22.957-15.84 150.15-20.543 80.07-52.051 177.52-88.742 274.38-45.07 119-164.18 408.5-296.5 526.41-139.99 124.74-307.98 150.93-424.26 150.93-188.27-0.019531-362.21-67.566-421.62-132.88-2.5586-2.8008-5.1914-5.8906-7.8516-9.168l-1.9883-2.4805-1.9414 2.5273c-21.828 28.512-43.398 52.34-64.129 70.82-139.99 124.75-307.99 150.93-424.27 150.93-108.55 0-198.02-21.91-253.98-40.289-71.621-23.527-131.11-55.59-163.19-87.961l-2.1797-2.1992-1.6875 2.5898c-35.512 54.512-70.34 97.16-103.52 126.79-140 124.75-308 150.94-424.29 150.94-185.38 0-352.21-65-415.07-126.15l-2.4805-2.4102-1.5078 3.1094c-64.609 132.88-138.45 226.55-219.47 278.42-54.41 34.344-103.25 51.762-145.14 51.762-59.152 0-105.67-35.191-130.98-99.09-26.469-68.641-18.691-134.54-0.070313-265.28 2.5312-17.141 5.1016-34.418 7.668-51.699l0.46094-3.0391c9.9805-66.98 20.301-136.25 27.141-191.02 1.3789-10.492-0.98828-17.5-3.668-20.57-1.082-1.2305-2.793-2.6406-6.4727-2.6406-1.2773 0-2.7188 0.17188-4.2578 0.51953-7.0625 1.5703-33.562 12.191-78.293 82.762-39.188 64.777-85.367 168.07-133.59 298.73-43.789 117.56-74.898 206.93-107.84 301.55l-0.30859 0.90234c-24.422 70.148-49.68 142.69-80.828 228.57-11.781 35.969-69.363 79.07-127.33 120.13-7.5703 5.3594-13.301 9.4297-18.09 12.941l-0.37891 0.26953c-57.57 39.777-88.871 55.277-111.61 55.277-37.742 0-43.461-41.309-45.902-58.949l-0.078125-0.62891c-9.9414-99.629-4.3203-224.25 2.1484-311.25 3.5117-42.262 8.5117-88.641 14.84-137.84l-4.6094-1.6406c-37.82 60.84-97.48 144.61-150.44 218.35l-0.20703 0.29688-0.12109 0.35156c-99.961 294.2-256.88 580.9-466.42 852.13l3.4922 3.5195c549.02-419.01 1106-735.59 1655.5-940.93 689.91-257.82 1463.6-388.55 2299.5-388.55 153.32 0 310.67 4.4688 467.67 13.297 6.2969 0.36328 11.777 4.1406 14.289 9.8633 4.168 9.4766-1.3398 19.578-8.9805 31.797-5.9297 9.4922-14.621 22.043-26.57 38.383-20.43 27.949-50.379 66.848-89.012 115.63-69.668 87.969-153.54 190.35-203.64 251.52l-1.2109 1.4805c-23.629 28.84-42.289 51.629-44.809 55.059-15.332 20.93-44.031 45.371-74.492 45.371-0.98047 0-1.8594-0.03125-2.7109-0.070312-236.16-13.289-465.16-20.02-680.64-20.02-1527 0-2569.1 322.41-3484.4 1078.1-716.74 591.64-1194.1 1238.7-1398 1515-77.328 104.81-104.88 141.51-120.76 150.39l-0.074219 0.039062-0.066406 0.039063c-0.44922 0.29297-0.92188 0.57031-1.4141 0.83203-3.6758 1.918-7.5977 2.8984-11.664 2.8984z"/>
</clipPath>
<clipPath id="c">
<path d="m3209 94.941c-34.738 0-75.738 20.02-112.47 54.902-54.938 56-99.285 169.37-121.73 310.99l-0.074219 0.41016c-29.785 162.29-33.168 386.24-10.027 665.64l0.60938 7.3125 3.9766-6.1719c15.113-23.496 31.094-49.188 43.934-69.852 5.6602-9.0938 10.949-17.598 15.039-24.09 72.371-122.05 171.09-306.74 230.64-493.98 55.43-174.31 62.789-312.27 21.289-398.95l-0.050781-0.089844c-16.277-30.582-40.207-46.125-71.129-46.125zm3549.2 1281.7c-11.977 0-25.188 3.3359-39.223 9.918-43.062 20.207-123.11 89.492-175.77 326.74-34.059 146.65-44.574 251.93-35.109 352l0.36719 4.1758 3.4727-2.332c50.059-33.516 100.2-78.457 145-129.94 44.938-51.652 84.938-110.43 115.66-169.98 78.812-161.88 67.34-301.9 41.602-352.14-13.395-25.508-32.23-38.445-56-38.445zm-921.78 79.746c-12.023 0-25.191 3.3438-39.223 9.9219-43.066 20.211-123.16 89.539-175.77 326.74-34.055 146.5-44.523 251.78-35.109 352l0.36719 4.1836 3.5195-2.332c50.059-33.539 100.21-78.48 144.96-129.97 44.938-51.652 84.938-110.41 115.66-169.94 78.812-161.86 67.336-301.91 41.645-352.17-13.438-25.512-32.273-38.434-56.043-38.434zm-1884.3-991.74c-9.1523 0-20.504 4.0234-33.75 12.023-40.84 24.594-104.69 129.78-140.84 263.27-43.223 163.79-78.18 392.14-118.66 656.59l-0.050781 0.36328c-3.832 25.008-7.7109 50.359-11.672 76.109-40.828 255.19-76.176 507.36-105.06 749.47l4.8203 1.1914 14.934-39.48c74.508-196.93 176.54-466.62 233.5-628.66 83.258-241.69 145.93-467.93 181.23-654.35 37.102-195.89 41.27-334.17 12.059-400l-0.1875-0.45703c-14.812-36.066-30.441-36.066-36.32-36.066zm935.43 1141.6c-11.977 0-25.188 3.3398-39.223 9.9102-43.062 20.199-123.15 89.52-175.77 326.75-34.059 146.48-44.527 251.75-35.062 351.99l0.36328 4.1797 3.5195-2.3398c50.059-33.535 100.16-78.477 144.96-129.96 44.891-51.645 84.891-110.4 115.61-169.91 78.812-161.84 67.34-301.9 41.602-352.18-13.348-25.512-32.184-38.441-56-38.441zm-3021.4 1268.7c-74.949 119.89-160.79 267.78-235.5 405.75-116.34 217.46-256.55 527.89-375.08 830.43l-1.4805 3.7812 4.0391-0.37891c71.344-6.6602 147.97-27.582 227.77-62.184 65.84-28.539 132.61-66.406 187.99-106.64l5.457-3.875c139.94-101.67 260.63-264.59 322.87-435.84 70.102-192.91 58.98-375.83-31.328-515.04l-0.21094-0.33984c-39.891-64.871-76.68-97.449-100.88-116.31l-2.1797-1.6992zm-259.59-93.789c-256.22 0-556.39 180.01-751.87 348.46-326.46 274.66-652.24 881.71-354.31 1371.3 51.457 81.027 108.38 151.05 169.2 208.16 60.797 57.086 123.69 99.578 186.91 126.29l2.7656 1.1719 0.64844-2.9336c16.605-74.961 38.371-149.19 55.855-208.83l0.38281-1.2891c3.3125-11.32 6.5078-22.223 9.5312-32.648l0.16016-0.51562c54.492-167.89 80.488-243.16 136.88-386.8l1.0898-2.7695-2.9102-0.59766c-88.461-18.129-169.83-59.359-223.25-113.13l-0.074219-0.074218c-17.379-16.137-35.469-41.398-34.113-63.891 0.61328-10.195 5.3008-18.945 13.195-24.637 4.3984-3.2383 9.5352-4.9375 14.879-4.9375 10.906 0 20.184 6.8984 31.922 15.637l0.16406 0.12109c6.3516 4.7305 13.547 10.078 22.551 15.754l0.38281 0.23438 0.37109 0.26953c70.582 50.504 132.93 75.133 215.18 85.043l1.875 0.21875 0.72656-1.7305c114.64-270.57 267.17-583.95 429.5-882.41 74.746-137.31 162.59-286.88 241.02-410.37l1.5898-2.5-2.7422-1.1445c-50-20.887-106.36-31.477-167.51-31.477zm878.82-841.77c-158.14 223.21-349.02 509.68-498.14 747.62l-1.4727 2.3477 2.4922 1.2227c55.371 27.168 132.55 84.828 183.11 165.18l0.21094 0.33594c54.699 91.762 80.621 196.21 77.039 310.44-3.2305 102.96-30.188 211.74-80.129 323.33-89.789 200.62-251.45 398.88-432.43 530.33l-5.3516 3.8711c-73.988 53.719-160.58 99.68-250.41 132.9-89.68 33.176-180.21 52.789-261.81 56.715l-1.6094 0.082031-0.58984 1.5c-54.332 137.48-93.285 260.19-134.51 390.11-7.0781 25.762-15.711 55.609-24.828 87.219-17.203 59.551-36.691 127.02-48.871 178.08l-0.62109 2.6367 2.6719 0.41797c35.648 5.6094 73.02 8.4492 111.07 8.4492 311.17 0 641.69-186.29 847.27-360.64 501.4-434.15 671.51-1082 551.56-2100.6l-0.050782-0.48828c-13.77-156.82-28.109-336.47-30.062-479.66l-0.097656-7.6719zm-886.76 2957.4c-182.14 113.01-446.69 253.07-672.66 278.56l-1.6992 0.19531-0.4375 1.6523c-30.344 115.34-52.25 245.9-63.352 377.56-9.6328 114.18-10.887 226.6-3.5312 316.55l0.63672 7.7695 4.0039-6.6875c44.484-74.359 120.75-195.28 231.46-349.1 153.09-212.69 324.25-422.19 508.74-622.68zm-760.48 1104.9c-29.395 0-49.371-53.098-56.594-75.938l-0.10547-0.32031-0.089844-0.35156c-45.574-170.59-49.445-425.38-11.199-736.82l0.33984-2.793-2.8047-0.011719c-126.23-0.6875-249.25-28.008-355.75-79.02-123.72-59.258-223.27-148.05-295.9-263.92-156.02-256.35-151.21-581.9 13.922-941.45 137.89-300.23 382.07-607.53 669.93-843.11 237.73-201.6 637.54-418.55 953.67-418.55 44.227 0 86.332 4.2891 125.13 12.75l1.6602 0.35938 0.94141-1.4023c50.18-74.477 103.91-155.91 160.83-242.14l0.39844-0.61328c133.24-201.89 284.26-430.72 426.05-624.42l0.47266-0.64062 0.007813-0.80859c2.082-237.02 23.832-467.8 64.648-685.9 37.273-199.09 90.133-382.31 152.85-529.73 66.684-159.5 209.61-382.86 365.85-496.36 42.793-31.086 107.25-68.117 171.36-68.117 57.441 0 103.46 28.617 136.79 85.031 54.953 92.203 55.148 243.7 0.60938 438.17-49.371 175.95-143.06 382.95-263.82 582.86-26.617 46.125-58.785 90.422-89.898 133.3-5.7695 7.9102-11.473 15.82-17.07 23.59l-0.60938 0.82422 119.15 753.2c50.332 298.46 43.371 599.43-20.672 894.57l4.5312 1.9102c49.859-75.703 79.133-127.71 89.492-159l0.082032-0.24609 0.027344-0.26953c24.289-230.44 59.141-496.84 95.629-730.89 39.18-253.39 95.559-503.08 167.6-742.14 58.379-193.73 127.05-379.38 198.59-536.82 81.93-176.27 176.03-297.32 279.7-359.82 24.461-14.719 49.352-22.215 73.969-22.215 49.801 0 95.34 31.496 124.95 86.445l0.13281 0.27344c52.859 102.31 56.609 263.36 11.16 478.58-37.902 179.52-110.6 396.43-210.24 627.35-43.605 98.77-103.18 228.95-160.78 354.83-106.48 232.68-216.59 473.28-233.47 531.57l-0.050781 0.17188-0.019532 0.17578c-14.258 103.83-26.355 265.4-41.68 469.96-1.4922 19.879-3.0078 40.168-4.5664 60.859l4.8594 1c31.461-91.48 73.117-205.08 117.3-319.87 35.613-89.34 144.02-361.29 331.09-473.93 44.82-27.008 86.031-40.707 122.49-40.707 47.555 0 85.148 23.219 108.73 67.16l0.21875 0.41797 0.20312 0.42969c30.152 65.5 19.012 173.04 3.7969 286.79-1.5586 12.312-3.0586 24.039-4.4883 35.168-9.2305 71.914-15.32 119.42-15.227 158.23l-0.015625 0.42188c-0.69141 29.039 3.0117 64.016 24.594 65.629l0.14844 0.011719h0.16016c12.77-0.625 39.391-23.652 60.121-59.773l0.15234-0.25c14.324-23.961 29.66-53.199 45.547-86.879l0.54297-1.1406-0.60547-1.1094c-29.645-55.031-50.637-121.22-59.098-186.37-10.418-80.285-2.2305-155.24 24.34-222.81l0.050781-0.13281 0.039063-0.13672c2.75-10.219 29.312-103.58 113.74-230.13 51.57-77.293 114.27-151.26 186.35-219.85 89.938-85.602 194.9-163.04 311.88-230.17l0.54688-0.30859 6.4023-3.0195c98.605-46.23 186.7-69.672 261.85-69.672 74.191 0 131.88 23.191 166.9 67.055l0.18359 0.24609c44.617 57.969 46.355 134.15 5.1211 226.39-38.445 86.121-109.9 175.98-160.27 236.08l-0.18359 0.19922c-120.04 138.76-342.77 319.51-488.73 414.07l-1.3711 0.89062 0.27734 1.6094c4.0195 24.668 17.918 60.359 39.859 84.457 34.379 37.766 106.61 63.121 179.8 63.121 37.574 0 71.996-6.8398 99.656-19.797 60.617-28.402 138.65-94.855 214.08-182.31l0.82422-0.98047-0.27734-1.2617c-17.871-71.016-30.262-178.32 12.16-286.19l0.046875-0.12891 0.046875-0.14063c2.7422-10.23 29.258-103.58 113.69-230.15 51.562-77.289 114.24-151.26 186.33-219.86 89.965-85.598 194.93-163.04 311.91-230.16l0.54688-0.32031 6.3984-3.0156c98.605-46.219 186.74-69.668 261.9-69.668 74.148 0 131.88 23.176 166.86 67.062l0.18359 0.22656c44.66 57.969 46.398 134.15 5.1641 226.39-38.445 86.121-109.89 175.97-160.32 236.06l-0.13672 0.19922c-120.04 138.75-342.81 319.49-488.77 414.07l-1.3711 0.88281 0.27344 1.6211c4.0234 24.711 17.922 60.418 39.816 84.512 34.379 37.75 106.65 63.105 179.84 63.105 37.578-0.007813 72.047-6.8477 99.703-19.797 51.383-24.121 115.25-75.395 179.79-144.36l0.86719-0.92578-0.22656-1.2539c-11.977-63.207-18.332-158.61 19.199-254.13l0.046875-0.12891 0.042969-0.14063c2.7461-10.223 29.305-103.58 113.74-230.14 51.52-77.293 114.24-151.25 186.33-219.84 89.965-85.629 194.88-163.02 311.91-230.13l0.50391-0.32031 6.4453-3.0195c98.648-46.262 186.74-69.715 261.89-69.715 74.195 0 131.89 23.223 166.9 67.062l0.18359 0.27734c44.617 57.965 46.355 134.12 5.1641 226.36-38.488 86.16-109.94 176-160.36 236.07l-0.13672 0.17578c-120.09 138.8-342.86 319.54-488.82 414.08l-1.3711 0.89453 0.27344 1.6172c4.0664 24.719 17.965 60.438 39.863 84.48 34.375 37.758 106.65 63.129 179.84 63.117 37.574 0 72.043-6.8477 99.656-19.809 87.496-41.02 233.51-171.66 380.93-415.34 62.949-109.21 128.87-252.06 164.02-355.52l0.18359-0.53906 0.22656-0.55078c15.359-36.078 23.086-54.184 40.273-54.184 4.9375 0 12.16 1.8359 18.562 10.523 4.9805 6.8672 16.777 22.957-15.863 150.15-20.527 80.07-52.023 177.52-88.73 274.38-45.074 119-164.21 408.5-296.5 526.41-139.98 124.74-307.98 150.93-424.27 150.93-188.25-0.023438-362.19-67.57-421.62-132.88-2.5586-2.7969-5.1641-5.8867-7.8164-9.168l-2.0117-2.4805-1.918 2.5312c-21.852 28.512-43.43 52.336-64.137 70.82-140.02 124.75-308.02 150.93-424.27 150.93-108.57 0-198.04-21.914-253.99-40.289-71.633-23.535-131.11-55.594-163.2-87.965l-2.1953-2.1992-1.6914 2.5898c-35.473 54.512-70.309 97.16-103.5 126.79-140.02 124.75-308.02 150.94-424.27 150.94-185.39 0-352.23-65-415.09-126.15l-2.4766-2.4102-1.5156 3.1094c-64.605 132.88-138.45 226.55-219.47 278.42-54.41 34.336-103.25 51.758-145.14 51.758-59.148 0-105.67-35.191-130.98-99.09-26.473-68.641-18.691-134.54-0.074219-265.28 2.5352-17.145 5.1016-34.426 7.6719-51.703l0.46094-3.0391c9.9805-66.98 20.301-136.25 27.141-191.02 1.3828-10.488-0.99219-17.496-3.6719-20.57-1.0781-1.2305-2.7852-2.6406-6.4688-2.6406-1.2773 0-2.7188 0.17188-4.2578 0.51953-7.0625 1.5742-33.562 12.191-78.289 82.762-39.191 64.781-85.371 168.07-133.59 298.73-43.789 117.56-74.902 206.93-107.84 301.55l-0.30859 0.89844c-24.422 70.148-49.684 142.69-80.832 228.57-11.781 35.969-69.359 79.07-127.33 120.13-7.5703 5.3633-13.301 9.4297-18.09 12.941l-0.38281 0.26953c-57.566 39.781-88.867 55.277-111.61 55.277-37.742 0-43.461-41.305-45.902-58.949l-0.082031-0.62891c-9.9375-99.629-4.3203-224.25 2.1523-311.25 3.5117-42.258 8.5078-88.641 14.84-137.84l-4.6094-1.6367c-37.824 60.836-97.48 144.61-150.44 218.35l-0.20703 0.29688-0.125 0.35156c-99.957 294.2-256.88 580.9-466.42 852.13l3.4883 3.5195c549.02-419.01 1106-735.59 1655.5-940.93 689.91-257.82 1463.6-388.55 2299.5-388.55 153.32 0 310.67 4.4727 467.7 13.305 6.3086 0.35547 11.75 4.1367 14.262 9.8594 4.207 9.4766-1.3242 19.582-8.957 31.801-5.9453 9.4883-14.629 22.039-26.562 38.375-20.434 27.953-50.375 66.852-89.004 115.63-69.668 87.969-153.55 190.35-203.66 251.52l-1.2344 1.4805c-23.59 28.84-42.285 51.633-44.801 55.059-15.312 20.93-44.023 45.371-74.469 45.371-1.0039 0-1.8711-0.03125-2.7422-0.070312-236.16-13.289-465.14-20.02-680.64-20.02-1527 0-2569.1 322.41-3484.4 1078.1-716.74 591.64-1194.1 1238.7-1398 1515-77.328 104.81-104.88 141.51-120.76 150.39l-0.14062 0.078125c-0.44141 0.29297-0.91797 0.57031-1.4102 0.83203-3.6719 1.918-7.5977 2.8984-11.664 2.8984"/>
</clipPath>
<linearGradient id="a" x1="-1.6696e-8" x2="1" gradientTransform="matrix(2.7e-7 -5999.3 5999.3 2.7e-7 3726.9 6001.8)" gradientUnits="userSpaceOnUse">
<stop stop-color="#be279a" offset="0"/>
<stop stop-color="#bd269a" offset=".0039062"/>
<stop stop-color="#bd2699" offset=".0078125"/>
<stop stop-color="#bc2698" offset=".011719"/>
<stop stop-color="#bc2697" offset=".015625"/>
<stop stop-color="#bc2697" offset=".019531"/>
<stop stop-color="#bb2696" offset=".023438"/>
<stop stop-color="#bb2695" offset=".027344"/>
<stop stop-color="#ba2694" offset=".03125"/>
<stop stop-color="#ba2694" offset=".035156"/>
<stop stop-color="#b92593" offset=".039062"/>
<stop stop-color="#b92592" offset=".042969"/>
<stop stop-color="#b92592" offset=".046875"/>
<stop stop-color="#b82591" offset=".050781"/>
<stop stop-color="#b82590" offset=".054688"/>
<stop stop-color="#b7258f" offset=".058594"/>
<stop stop-color="#b7258f" offset=".0625"/>
<stop stop-color="#b6258e" offset=".066406"/>
<stop stop-color="#b6258d" offset=".070312"/>
<stop stop-color="#b6248d" offset=".074219"/>
<stop stop-color="#b5248c" offset=".078125"/>
<stop stop-color="#b5248b" offset=".082031"/>
<stop stop-color="#b4248b" offset=".085938"/>
<stop stop-color="#b4248a" offset=".089844"/>
<stop stop-color="#b32489" offset=".09375"/>
<stop stop-color="#b32489" offset=".097656"/>
<stop stop-color="#b32488" offset=".10156"/>
<stop stop-color="#b22487" offset=".10547"/>
<stop stop-color="#b22386" offset=".10938"/>
<stop stop-color="#b12386" offset=".11328"/>
<stop stop-color="#b12385" offset=".11719"/>
<stop stop-color="#b02384" offset=".12109"/>
<stop stop-color="#b02384" offset=".125"/>
<stop stop-color="#b02383" offset=".12891"/>
<stop stop-color="#af2382" offset=".13281"/>
<stop stop-color="#af2382" offset=".13672"/>
<stop stop-color="#ae2381" offset=".14062"/>
<stop stop-color="#ae2280" offset=".14453"/>
<stop stop-color="#ae2280" offset=".14844"/>
<stop stop-color="#ad227f" offset=".15234"/>
<stop stop-color="#ad227f" offset=".15625"/>
<stop stop-color="#ac227e" offset=".16016"/>
<stop stop-color="#ac227d" offset=".16406"/>
<stop stop-color="#ab227d" offset=".16797"/>
<stop stop-color="#ab227c" offset=".17188"/>
<stop stop-color="#ab227b" offset=".17578"/>
<stop stop-color="#aa227b" offset=".17969"/>
<stop stop-color="#aa217a" offset=".18359"/>
<stop stop-color="#a92179" offset=".1875"/>
<stop stop-color="#a92179" offset=".19141"/>
<stop stop-color="#a92178" offset=".19531"/>
<stop stop-color="#a82177" offset=".19922"/>
<stop stop-color="#a82177" offset=".20312"/>
<stop stop-color="#a72176" offset=".20703"/>
<stop stop-color="#a72176" offset=".21094"/>
<stop stop-color="#a62175" offset=".21484"/>
<stop stop-color="#a62074" offset=".21875"/>
<stop stop-color="#a62074" offset=".22266"/>
<stop stop-color="#a52073" offset=".22656"/>
<stop stop-color="#a52072" offset=".23047"/>
<stop stop-color="#a42072" offset=".23438"/>
<stop stop-color="#a42071" offset=".23828"/>
<stop stop-color="#a42071" offset=".24219"/>
<stop stop-color="#a32070" offset=".24609"/>
<stop stop-color="#a3206f" offset=".25"/>
<stop stop-color="#a2206f" offset=".25391"/>
<stop stop-color="#a21f6e" offset=".25781"/>
<stop stop-color="#a11f6e" offset=".26172"/>
<stop stop-color="#a11f6d" offset=".26562"/>
<stop stop-color="#a11f6c" offset=".26953"/>
<stop stop-color="#a01f6c" offset=".27344"/>
<stop stop-color="#a01f6b" offset=".27734"/>
<stop stop-color="#9f1f6b" offset=".28125"/>
<stop stop-color="#9f1f6a" offset=".28516"/>
<stop stop-color="#9f1f69" offset=".28906"/>
<stop stop-color="#9e1f69" offset=".29297"/>
<stop stop-color="#9e1e68" offset=".29688"/>
<stop stop-color="#9d1e68" offset=".30078"/>
<stop stop-color="#9d1e67" offset=".30469"/>
<stop stop-color="#9d1e67" offset=".30859"/>
<stop stop-color="#9c1e66" offset=".3125"/>
<stop stop-color="#9c1e65" offset=".31641"/>
<stop stop-color="#9b1e65" offset=".32031"/>
<stop stop-color="#9b1e64" offset=".32422"/>
<stop stop-color="#9b1e64" offset=".32812"/>
<stop stop-color="#9a1e63" offset=".33203"/>
<stop stop-color="#9a1d63" offset=".33594"/>
<stop stop-color="#991d62" offset=".33984"/>
<stop stop-color="#991d61" offset=".34375"/>
<stop stop-color="#981d61" offset=".34766"/>
<stop stop-color="#981d60" offset=".35156"/>
<stop stop-color="#981d60" offset=".35547"/>
<stop stop-color="#971d5f" offset=".35938"/>
<stop stop-color="#971d5f" offset=".36328"/>
<stop stop-color="#961d5e" offset=".36719"/>
<stop stop-color="#961d5e" offset=".37109"/>
<stop stop-color="#961c5d" offset=".375"/>
<stop stop-color="#951c5c" offset=".37891"/>
<stop stop-color="#951c5c" offset=".38281"/>
<stop stop-color="#941c5b" offset=".38672"/>
<stop stop-color="#941c5b" offset=".39062"/>
<stop stop-color="#941c5a" offset=".39453"/>
<stop stop-color="#931c5a" offset=".39844"/>
<stop stop-color="#931c59" offset=".40234"/>
<stop stop-color="#921c59" offset=".40625"/>
<stop stop-color="#921c58" offset=".41016"/>
<stop stop-color="#921b58" offset=".41406"/>
<stop stop-color="#911b57" offset=".41797"/>
<stop stop-color="#911b57" offset=".42188"/>
<stop stop-color="#901b56" offset=".42578"/>
<stop stop-color="#901b56" offset=".42969"/>
<stop stop-color="#901b55" offset=".43359"/>
<stop stop-color="#8f1b54" offset=".4375"/>
<stop stop-color="#8f1b54" offset=".44141"/>
<stop stop-color="#8e1b53" offset=".44531"/>
<stop stop-color="#8e1b53" offset=".44922"/>
<stop stop-color="#8e1a52" offset=".45312"/>
<stop stop-color="#8d1a52" offset=".45703"/>
<stop stop-color="#8d1a51" offset=".46094"/>
<stop stop-color="#8c1a51" offset=".46484"/>
<stop stop-color="#8c1a50" offset=".46875"/>
<stop stop-color="#8c1a50" offset=".47266"/>
<stop stop-color="#8b1a4f" offset=".47656"/>
<stop stop-color="#8b1a4f" offset=".48047"/>
<stop stop-color="#8a1a4e" offset=".48438"/>
<stop stop-color="#8a1a4e" offset=".48828"/>
<stop stop-color="#8a1a4d" offset=".49219"/>
<stop stop-color="#89194d" offset=".49609"/>
<stop stop-color="#89194c" offset=".5"/>
<stop stop-color="#88194c" offset=".50391"/>
<stop stop-color="#88194c" offset=".50781"/>
<stop stop-color="#88194b" offset=".51172"/>
<stop stop-color="#87194b" offset=".51562"/>
<stop stop-color="#87194a" offset=".51953"/>
<stop stop-color="#87194a" offset=".52344"/>
<stop stop-color="#861949" offset=".52734"/>
<stop stop-color="#861949" offset=".53125"/>
<stop stop-color="#851948" offset=".53516"/>
<stop stop-color="#851848" offset=".53906"/>
<stop stop-color="#851847" offset=".54297"/>
<stop stop-color="#841847" offset=".54688"/>
<stop stop-color="#841846" offset=".55078"/>
<stop stop-color="#831846" offset=".55469"/>
<stop stop-color="#831845" offset=".55859"/>
<stop stop-color="#831845" offset=".5625"/>
<stop stop-color="#821844" offset=".56641"/>
<stop stop-color="#821844" offset=".57031"/>
<stop stop-color="#811844" offset=".57422"/>
<stop stop-color="#811743" offset=".57812"/>
<stop stop-color="#811743" offset=".58203"/>
<stop stop-color="#801742" offset=".58594"/>
<stop stop-color="#801742" offset=".58984"/>
<stop stop-color="#7f1741" offset=".59375"/>
<stop stop-color="#7f1741" offset=".59766"/>
<stop stop-color="#7f1740" offset=".60156"/>
<stop stop-color="#7e1740" offset=".60547"/>
<stop stop-color="#7e1740" offset=".60938"/>
<stop stop-color="#7e173f" offset=".61328"/>
<stop stop-color="#7d173f" offset=".61719"/>
<stop stop-color="#7d163e" offset=".62109"/>
<stop stop-color="#7c163e" offset=".625"/>
<stop stop-color="#7c163d" offset=".62891"/>
<stop stop-color="#7c163d" offset=".63281"/>
<stop stop-color="#7b163d" offset=".63672"/>
<stop stop-color="#7b163c" offset=".64062"/>
<stop stop-color="#7a163c" offset=".64453"/>
<stop stop-color="#7a163b" offset=".64844"/>
<stop stop-color="#7a163b" offset=".65234"/>
<stop stop-color="#79163a" offset=".65625"/>
<stop stop-color="#79163a" offset=".66016"/>
<stop stop-color="#79153a" offset=".66406"/>
<stop stop-color="#781539" offset=".66797"/>
<stop stop-color="#781539" offset=".67188"/>
<stop stop-color="#771538" offset=".67578"/>
<stop stop-color="#771538" offset=".67969"/>
<stop stop-color="#771538" offset=".68359"/>
<stop stop-color="#761537" offset=".6875"/>
<stop stop-color="#761537" offset=".69141"/>
<stop stop-color="#751536" offset=".69531"/>
<stop stop-color="#751536" offset=".69922"/>
<stop stop-color="#751536" offset=".70312"/>
<stop stop-color="#741535" offset=".70703"/>
<stop stop-color="#741435" offset=".71094"/>
<stop stop-color="#741434" offset=".71484"/>
<stop stop-color="#731434" offset=".71875"/>
<stop stop-color="#731434" offset=".72266"/>
<stop stop-color="#721433" offset=".72656"/>
<stop stop-color="#721433" offset=".73047"/>
<stop stop-color="#721432" offset=".73438"/>
<stop stop-color="#711432" offset=".73828"/>
<stop stop-color="#711432" offset=".74219"/>
<stop stop-color="#701431" offset=".74609"/>
<stop stop-color="#701431" offset=".75"/>
<stop stop-color="#701331" offset=".75391"/>
<stop stop-color="#6f1330" offset=".75781"/>
<stop stop-color="#6f1330" offset=".76172"/>
<stop stop-color="#6f132f" offset=".76562"/>
<stop stop-color="#6e132f" offset=".76953"/>
<stop stop-color="#6e132f" offset=".77344"/>
<stop stop-color="#6d132e" offset=".77734"/>
<stop stop-color="#6d132e" offset=".78125"/>
<stop stop-color="#6d132e" offset=".78516"/>
<stop stop-color="#6c132d" offset=".78906"/>
<stop stop-color="#6c132d" offset=".79297"/>
<stop stop-color="#6c122c" offset=".79688"/>
<stop stop-color="#6b122c" offset=".80078"/>
<stop stop-color="#6b122c" offset=".80469"/>
<stop stop-color="#6a122b" offset=".80859"/>
<stop stop-color="#6a122b" offset=".8125"/>
<stop stop-color="#6a122b" offset=".81641"/>
<stop stop-color="#69122a" offset=".82031"/>
<stop stop-color="#69122a" offset=".82422"/>
<stop stop-color="#69122a" offset=".82812"/>
<stop stop-color="#681229" offset=".83203"/>
<stop stop-color="#681229" offset=".83594"/>
<stop stop-color="#671229" offset=".83984"/>
<stop stop-color="#671128" offset=".84375"/>
<stop stop-color="#671128" offset=".84766"/>
<stop stop-color="#661128" offset=".85156"/>
<stop stop-color="#661127" offset=".85547"/>
<stop stop-color="#661127" offset=".85938"/>
<stop stop-color="#651127" offset=".86328"/>
<stop stop-color="#651126" offset=".86719"/>
<stop stop-color="#641126" offset=".87109"/>
<stop stop-color="#641126" offset=".875"/>
<stop stop-color="#641125" offset=".87891"/>
<stop stop-color="#631125" offset=".88281"/>
<stop stop-color="#631125" offset=".88672"/>
<stop stop-color="#631024" offset=".89062"/>
<stop stop-color="#621024" offset=".89453"/>
<stop stop-color="#621024" offset=".89844"/>
<stop stop-color="#621023" offset=".90234"/>
<stop stop-color="#611023" offset=".90625"/>
<stop stop-color="#611023" offset=".91016"/>
<stop stop-color="#601022" offset=".91406"/>
<stop stop-color="#601022" offset=".91797"/>
<stop stop-color="#601022" offset=".92188"/>
<stop stop-color="#5f1022" offset=".92578"/>
<stop stop-color="#5f1021" offset=".92969"/>
<stop stop-color="#5f0f21" offset=".93359"/>
<stop stop-color="#5e0f21" offset=".9375"/>
<stop stop-color="#5e0f20" offset=".94141"/>
<stop stop-color="#5d0f20" offset=".94531"/>
<stop stop-color="#5d0f20" offset=".94922"/>
<stop stop-color="#5d0f1f" offset=".95312"/>
<stop stop-color="#5c0f1f" offset=".95703"/>
<stop stop-color="#5c0f1f" offset=".96094"/>
<stop stop-color="#5c0f1f" offset=".96484"/>
<stop stop-color="#5b0f1e" offset=".96875"/>
<stop stop-color="#5b0f1e" offset=".97266"/>
<stop stop-color="#5b0f1e" offset=".97656"/>
<stop stop-color="#5a0e1d" offset=".98047"/>
<stop stop-color="#5a0e1d" offset=".98438"/>
<stop stop-color="#590e1d" offset=".98828"/>
<stop stop-color="#590e1d" offset=".99219"/>
<stop stop-color="#590e1c" offset=".99609"/>
<stop stop-color="#580e1c" offset="1"/>
</linearGradient>
<clipPath id="b">
<path d="m0 0h7453.9v6004.3h-7453.9z"/>
</clipPath>
</defs>
<g>
<g clip-path="url(#e)">
<g clip-path="url(#d)">
<g clip-path="url(#c)">
<path d="m0 6001.8h7453.9v-5999.3h-7453.9z" fill="url(#a)"/>
</g>
</g>
</g>
<g clip-path="url(#b)">
<path d="m1600 4899c-184.7 200.7-355.48 409.72-508.93 622.91-112.29 156.02-189.06 278.21-231.58 349.28-13.82-169.01 0.95703-442.94 66.805-693.27 224.39-25.32 486.27-162.64 673.71-278.92zm-342.04-786.9c118.73-303.05 258.05-611.64 374.95-830.15 75.156-138.8 160.32-285.49 235.42-405.62 29.73 23.168 63.832 56.359 100.29 115.68l0.23047 0.35938c89.871 138.54 100.91 320.66 31.074 512.82-62.074 170.81-182.48 333.33-321.97 434.66l-5.4688 3.8984c-101.3 73.57-260.58 153.97-414.52 168.35zm-400.44 721.05c-126.4-53.402-251.74-170.95-354.95-333.46-297.14-488.32 27.883-1093.9 353.8-1368.1 195.14-168.17 494.7-347.86 750.24-347.86 60.898 0 116.83 10.516 166.55 31.281-78.637 123.83-165.84 272.26-241.1 410.52-162.62 298.97-314.89 611.85-429.61 882.63-81.59-9.8281-144.44-34.809-214.02-84.59l-0.42969-0.30859-0.45312-0.28125c-8.9961-5.6719-16.195-11.031-22.547-15.758-12.113-9.0195-21.684-16.141-33.422-16.141-5.8828 0-11.582 1.9102-16.344 5.4102-8.5117 6.1367-13.57 15.559-14.227 26.52-1.4102 23.367 17.051 49.293 34.91 65.867 53.715 54.07 136.39 95.762 224.51 113.82-56.617 144.23-82.688 219.84-136.94 386.98l-0.16797 0.55078c-3.1289 10.809-6.4492 22.129-9.8906 33.879-17.668 60.25-39.289 133.99-55.918 209.05zm263.74 46.59c-37.988 0-75.129-2.832-110.68-8.4258 12.16-51.008 31.523-118.05 48.832-177.97 9.1289-31.617 17.75-61.48 24.805-87.148 41.203-129.82 80.203-252.66 134.46-389.95 166.68-8.0391 362.28-80.258 513.56-190.09l5.3594-3.8828c181.32-131.7 343.28-330.32 433.24-531.32 50.078-111.89 77.109-220.99 80.348-324.27 3.6055-114.71-22.438-219.62-77.398-311.83l-0.23047-0.37109c-48.57-77.168-124.02-136.58-184.13-166.08 149.49-238.54 340.37-524.94 498.06-747.51 1.9414 141.95 16.09 320.61 30.07 479.88l0.0625 0.53125c119.84 1017.7-50.051 1664.9-550.7 2098.4-205.23 174.05-535.16 360.04-845.65 360.04zm3518.8-2585c-9.5117-100.83 1.0977-205.2 35.027-351.22 52.406-236.18 131.75-305.02 174.41-325.03 13.672-6.4102 26.523-9.668 38.137-9.668 22.82 0 40.93 12.516 53.777 37.078 25.52 49.859 36.77 188.93-41.613 349.89-62.555 121.17-158.27 230.97-259.74 298.95zm948.79-149.85c-9.4648-100.8 1.1445-205.18 35.074-351.23 52.406-236.16 131.75-305 174.37-325.02 13.719-6.418 26.57-9.6758 38.184-9.6758 22.773 0 40.93 12.531 53.824 37.07 25.516 49.848 36.723 188.9-41.66 349.88-62.559 121.2-158.32 231-259.79 298.98zm921.77-79.762c-9.4688-100.65 1.1406-205.03 35.074-351.21 52.406-236.22 131.75-305.06 174.37-325.05 13.762-6.3984 26.613-9.6484 38.227-9.6484 22.73 0 40.883 12.484 53.734 37.043 25.562 49.848 36.812 188.89-41.57 349.88-62.602 121.24-158.36 231.04-259.83 298.98zm-2966 157.71c28.887-242.25 64.129-493.62 105.05-749.39 3.9688-25.836 7.8711-51.281 11.707-76.387 40.473-264.41 75.43-492.73 118.61-656.4 35.988-132.89 99.289-237.47 139.72-261.8 12.848-7.7305 23.781-11.664 32.461-11.664 5.418 0 19.828 0 34.02 34.574l0.19922 0.5c29 65.348 24.781 203.13-12.23 398.49-35.281 186.3-97.93 412.48-181.12 654-56.934 161.93-158.97 431.66-233.49 628.6-5.1211 13.527-10.102 26.707-14.93 39.48zm-577.46-1096.1c-23.129-279.22-19.777-502.75 10.012-665l0.066407-0.45703c22.383-141.17 66.473-253.98 121-309.59 36.273-34.434 76.621-54.188 110.75-54.188 29.93 0 53.109 15.09 68.918 44.812 41.23 86.062 33.82 223.39-21.422 397.07-59.469 187.03-158.08 371.5-230.37 493.42-4.0078 6.4023-9.1484 14.68-14.996 24.055-12.523 20.168-28.828 46.371-43.953 69.875zm256.6-1126.7c-64.77 0-129.74 37.316-172.83 68.598-156.63 113.82-299.9 337.66-366.68 497.4-62.789 147.61-115.7 330.99-153 530.28-40.863 218.31-62.621 449.18-64.703 686.34-141.81 193.73-292.79 422.49-426.12 624.51-56.973 86.332-110.92 168.09-161.21 242.73-38.988-8.5-81.199-12.809-125.66-12.809-316.78 0-717.2 217.24-955.25 419.12-288.16 235.81-532.58 543.43-670.62 844-165.49 360.33-170.3 686.63-13.766 943.81 72.883 116.29 172.79 205.39 296.93 264.84 106.92 51.215 230.2 78.582 356.82 79.262-38.297 311.88-34.438 566.68 11.266 737.77l0.10547 0.40234 0.12109 0.38672c7.3906 23.352 27.93 77.68 58.977 77.68 4.4805 0 8.7891-1.0703 12.824-3.1875 0.55469-0.29297 1.0977-0.60156 1.6172-0.94141 16.395-9.1719 42.707-44.23 121.55-151.08 203.79-276.23 681.04-923.11 1397.5-1514.5 914.88-755.25 1956.5-1077.5 3482.8-1077.5 215.43 0 444.31 6.7305 680.55 20.02 0.91406 0.050781 1.875 0.074218 2.8359 0.074218 31.367 0 60.82-25 76.504-46.391 2.5156-3.4219 21.586-26.699 45.73-56.18 50.117-61.23 134.08-163.7 203.86-251.81 38.645-48.805 68.594-87.723 89.082-115.7 11.98-16.406 20.715-29.012 26.66-38.543 8.0469-12.848 13.809-23.531 9.1445-34.133-2.8789-6.5898-9.1914-10.93-16.414-11.344-157.08-8.832-314.44-13.305-467.81-13.305-836.21 0-1610.2 130.78-2300.4 388.71-550.24 205.62-1106.7 522-1656.1 941.28 209.84-271.62 366.59-557.9 466.8-852.85 58.738-81.789 114.05-159.8 150.54-218.49-5.2266 40.637-10.727 88.348-14.855 137.98-6.4727 87.094-12.102 211.87-2.1328 311.72l0.078125 0.68359c2.5312 18.293 8.4727 61.109 48.383 61.109 23.297 0 54.996-15.633 113.06-55.742l0.41016-0.28516c4.9297-3.625 11.012-7.9297 18.051-12.922 58.328-41.309 116.24-84.699 128.24-121.32 31.285-86.262 56.637-159.08 81.145-229.49 32.961-94.676 64.09-184.1 107.83-301.52 48.16-130.52 94.27-233.65 133.35-298.25 44.211-69.758 69.887-80.141 76.719-81.656 1.3594-0.30078 2.6094-0.46094 3.7188-0.46094 2.6602 0 3.7695 0.85938 4.5898 1.7891 2.2148 2.5312 4.3477 8.8828 3.0742 18.609-6.8164 54.543-17.145 123.89-27.133 190.96-2.7305 18.293-5.4492 36.602-8.1289 54.75-18.691 131.19-26.492 197.31 0.21094 266.56 25.715 64.922 73.059 100.67 133.31 100.67 42.367 0 91.629-17.527 146.49-52.16 81.48-52.148 155.54-146.09 220.37-279.43 65.27 63.508 234.43 126.86 416.82 126.86 116.7 0 285.35-26.301 425.92-151.58 33.43-29.82 68.32-72.582 103.94-127.28 63.703 64.219 234.59 128.99 418.98 128.99 116.7 0 285.35-26.289 425.92-151.57 20.898-18.621 42.527-42.5 64.477-71.164 2.6992 3.3516 5.3047 6.4414 7.9141 9.2812 59.812 65.711 234.55 133.69 423.45 133.7h0.046874c116.7 0 285.35-26.297 425.92-151.57 132.71-118.27 252.02-408.21 297.15-527.38 36.723-96.918 68.277-194.46 88.855-274.65 32.879-128.33 21.125-144.46 15.41-152.25-6.9961-9.5391-15.047-11.535-20.535-11.535-18.883 0-26.797 18.621-42.617 55.707l-0.23047 0.62109-0.22656 0.64062c-35.121 103.32-100.93 245.98-163.8 355.03-147.11 243.2-292.67 373.5-379.83 414.37-27.301 12.797-61.414 19.57-98.594 19.57h-0.042968c-72.48 0-144-25.031-177.93-62.301-20.625-22.609-35.074-57.637-39.281-83.211 144.78-93.777 369.22-275.72 489.35-414.54l0.17969-0.21094c50.488-60.191 122.05-150.22 160.7-236.66 41.613-93.141 39.785-170.15-5.4414-228.96l-0.23047-0.22656c-35.484-44.496-93.883-68-168.83-68-75.547 0-163.98 23.504-262.95 69.918l-6.5391 3.0664-0.64062 0.36328c-117.16 67.176-222.24 144.73-312.38 230.5-72.207 68.707-135.04 142.83-186.71 220.27-84.234 126.23-110.85 218.92-114.05 230.88-37.359 95.012-31.734 189.81-19.297 255.51-64.434 68.824-127.81 119.74-179.07 143.81-27.301 12.789-61.414 19.551-98.594 19.559-72.527 0-144.09-25.039-178.02-62.289-20.578-22.652-35.031-57.688-39.238-83.238 144.83-93.801 369.27-275.75 489.35-414.54l0.18359-0.21094c50.484-60.207 122.05-150.24 160.65-236.65 41.613-93.137 39.781-170.16-5.4883-228.96l-0.18359-0.23047c-35.484-44.496-93.836-68-168.79-68-75.543 0-164.03 23.504-262.99 69.922l-6.4922 3.0625-0.64062 0.36719c-117.16 67.195-222.29 144.75-312.38 230.49-72.207 68.723-135.04 142.83-186.67 220.29-84.234 126.26-110.85 218.95-114.09 230.89-42.207 107.41-30.73 214.14-12.254 287.72-75.316 87.32-152.69 153.31-213.24 181.68-27.301 12.801-61.367 19.562-98.594 19.562-72.48 0-144-25.031-177.93-62.301-20.625-22.66-35.078-57.68-39.285-83.184 144.78-93.797 369.22-275.75 489.3-414.54l0.18359-0.22266c50.488-60.211 122.1-150.26 160.7-236.66 41.566-93.137 39.738-170.17-5.4883-228.97l-0.18359-0.25c-35.531-44.48-93.883-67.992-168.83-67.992-75.547 0-163.98 23.512-262.95 69.91l-6.4922 3.0625-0.64062 0.36719c-117.16 67.223-222.25 144.77-312.36 230.52-72.207 68.719-135.03 142.83-186.7 220.27-84.23 126.25-110.87 218.94-114.08 230.87-58.32 148.35-18.609 312.02 34.887 411.29-15.859 33.598-31.125 62.727-45.441 86.664l-0.16797 0.28516c-21.621 37.668-47.379 57.988-58.082 58.508-20.637-1.5391-22.816-40.121-22.266-63.098l0.011719-0.47266c-0.09375-38.652 6-86.09 15.207-157.91 1.4336-11.125 2.9336-22.863 4.4922-35.152 15.246-114.14 26.418-222.06-4.0117-288.17l-0.23047-0.49609-0.25781-0.49609c-24.039-44.797-62.402-68.465-110.93-68.465-36.922 0-78.574 13.82-123.78 41.07-187.79 113.08-296.38 385.45-332.13 475.16-44.695 116.09-86.469 230.16-117.34 319.96 1.5508-20.695 3.0664-40.984 4.5586-60.863 15.309-204.42 27.41-366.06 41.66-469.81 16.82-58.082 126.88-298.58 233.34-531.22 57.633-125.93 117.22-256.14 160.81-354.88 99.699-231.05 172.45-448.13 210.39-627.8 45.57-215.84 41.738-377.41-11.387-480.3l-0.15234-0.27344c-30.062-55.793-76.398-87.758-127.15-87.758-25.078 0-50.398 7.5938-75.262 22.547-104.1 62.738-198.52 184.15-280.68 360.94-71.59 157.54-140.31 343.29-198.72 537.14-72.055 239.16-128.48 488.96-167.67 742.46-36.508 234.18-71.352 500.5-95.641 731.02-12 36.207-48.562 96.672-89.211 158.39 64.141-295.57 71.145-596.4 20.703-895.48l-118.99-752.16c5.6016-7.8203 11.312-15.637 17.07-23.594 31.16-42.895 63.371-87.297 90.023-133.48 120.87-200.07 214.65-407.31 264.08-583.46 54.738-195.13 54.43-347.32-0.85156-440.1-33.82-57.254-80.57-86.293-138.95-86.293zm-2368 5887.1l8.0039-13.383c44.461-74.309 120.69-195.17 231.35-348.92 153.03-212.61 324.13-422.03 508.55-622.45l-6.3203-7.6328c-112.74 69.945-221.21 128.24-322.38 173.25-130.97 58.27-248.48 93.578-349.24 104.95l-3.4102 0.37891-0.86719 3.3203c-30.379 115.48-52.309 246.18-63.426 377.98-9.6445 114.31-10.898 226.88-3.5273 316.96l1.2695 15.543m394.56-1769.3l8.0898-0.75c37.074-3.4688 76.223-10.93 116.35-22.188 36.66-10.293 74.402-23.812 112.17-40.184 66.012-28.617 132.95-66.59 188.44-106.89l5.5039-3.9219c140.32-101.94 261.34-265.3 323.73-437 70.383-193.64 59.168-377.32-31.539-517.2l-0.23047-0.36719c-40.098-65.199-77.098-97.969-101.45-116.94l-4.3828-3.4102-2.9258 4.6992c-74.98 119.94-160.84 267.88-235.59 405.91-116.38 217.54-256.64 528.07-375.2 830.69l-2.9609 7.5508m-397.18-990.08c-84.102 70.762-165.52 161.27-235.45 261.75-36.77 52.828-70.176 108.15-99.293 164.4-30.609 59.152-56.621 119.65-77.316 179.82-45.359 131.88-65.355 261.42-59.426 385 6.6289 138.24 45.871 267.29 116.63 383.58l0.027344 0.039062 0.027344 0.042969c51.547 81.156 108.6 151.34 169.57 208.61 61.02 57.293 124.15 99.938 187.65 126.77l5.5273 2.3281 1.3008-5.8594c16.59-74.871 38.34-149.06 55.816-208.67l0.015625-0.050781 0.23438-0.82031c3.3945-11.566 6.5977-22.488 9.6562-33.047l0.14062-0.46094c54.477-167.84 80.465-243.07 136.83-386.66l2.1719-5.5312-5.8203-1.2031c-42.898-8.7891-85.742-23.645-123.91-42.965-38.227-19.348-72.133-43.371-98.062-69.473l-0.074218-0.070313-0.070313-0.066406c-16.961-15.75-34.621-40.293-33.32-61.914 0.56641-9.4297 4.8867-17.52 12.195-22.785 3.9492-2.9102 8.5742-4.4414 13.383-4.4414 10.078 0 18.617 6.3477 30.438 15.148l0.12891 0.10156c6.3906 4.75 13.637 10.148 22.75 15.879l0.32031 0.19922 0.30469 0.21875c35.504 25.414 69.387 44.332 103.58 57.863 34.328 13.59 71.211 22.633 112.75 27.629l3.7422 0.44922 1.457-3.457c114.61-270.5 267.1-583.8 429.4-882.19 74.715-137.26 162.53-286.79 240.93-410.23l3.1836-5.0039-5.4727-2.2891c-50.316-21.02-107-31.668-168.48-31.668-256.89 0-557.64 180.29-753.46 349.03m1316.1-270.62l0.19922 0.33203c54.441 91.359 80.242 195.34 76.672 309.06-3.2109 102.63-30.102 211.1-79.914 322.38-89.617 200.25-250.97 398.13-431.61 529.33l-5.3594 3.8789c-73.809 53.582-160.19 99.43-249.81 132.58-89.438 33.078-179.72 52.641-261.06 56.559l-3.2227 0.16016-1.1875 3c-54.371 137.58-93.32 260.32-134.57 390.27l-0.027343 0.097656-0.019531 0.09375c-7.0469 25.648-15.668 55.496-24.801 87.109-17.199 59.559-36.688 127.06-48.891 178.18l-1.2461 5.2578 5.3398 0.84375c35.777 5.6289 73.277 8.4766 111.46 8.4766 311.84 0 642.97-186.6 848.88-361.23l0.023437-0.019531 0.019532-0.007813c502.08-434.74 672.45-1083.3 552.39-2102.7l-0.042969-0.45703c-13.766-156.8-28.102-336.38-30.055-479.49l-0.21094-15.336-8.8672 12.516c-158.17 223.25-349.08 509.77-498.22 747.74l-2.9375 4.7109 4.9805 2.4414c55.047 27.008 131.8 84.348 182.09 164.24m2500.9-914.77c-17.242 74.09-28.355 137.29-33.934 193.19-5.625 56.328-6.0352 108.55-1.2344 159.63l0.82422 8.3516 6.9492-4.6758c50.258-33.656 100.56-78.75 145.46-130.4 45.043-51.785 85.148-110.72 115.93-170.4l0.046875-0.050782v-0.058594c44.266-90.844 57.207-168.96 60.27-218.49 3.4766-55.469-3.5195-106.27-18.703-135.91-6.7695-12.953-15.137-22.895-24.738-29.543-9.832-6.7812-21.082-10.219-33.477-10.219-12.344 0-25.883 3.418-40.242 10.148-20.941 9.8125-52.77 32.223-85.648 83.262-37.59 58.328-68.367 140.82-91.504 245.16m914.45 211.33l6.9492-4.6836c50.258-33.656 100.56-78.746 145.46-130.39 45.047-51.805 85.195-110.73 116.02-170.43v-0.050781l0.046876-0.058594c44.223-90.852 57.164-168.97 60.273-218.5 3.4297-55.469-3.5234-106.25-18.703-135.85v-0.050782c-6.8164-12.938-15.184-22.879-24.785-29.52-9.8789-6.7812-21.129-10.223-33.477-10.223-12.348 0-25.93 3.4219-40.285 10.152-20.898 9.8203-52.727 32.23-85.605 83.277-37.59 58.344-68.414 140.84-91.551 245.14-17.195 74.109-28.262 137.3-33.887 193.22-5.625 56.332-6.0352 108.54-1.2344 159.61l0.77734 8.3594m921.77-79.77l6.9531-4.668c50.258-33.645 100.56-78.723 145.46-130.37 45.09-51.801 85.195-110.75 116.02-170.47l0.046875-0.050781v-0.058594c44.219-90.852 57.207-168.96 60.27-218.49 3.4297-55.469-3.5664-106.25-18.703-135.86h-0.046875c-6.7656-12.984-15.137-22.91-24.738-29.539-9.832-6.8125-21.082-10.242-33.43-10.242-12.344 0-25.926 3.4297-40.332 10.148-20.898 9.832-52.727 32.242-85.605 83.262-37.59 58.34-68.363 140.84-91.551 245.18-17.195 74.172-28.305 137.41-33.883 193.31-5.6719 56.34-6.082 108.51-1.2812 159.5l0.82031 8.3516m-2957.1 150.66l14.441-38.152 0.49609-1.3281c74.512-196.94 176.55-466.65 233.53-628.74 83.289-241.77 145.99-468.14 181.32-654.66 18.461-97.496 28.875-181.18 30.953-248.82 2.0898-68.043-4.3203-119.4-19.039-152.64l-0.19141-0.41016c-13.848-33.75-28.676-37.637-38.629-37.637-9.6133 0-21.402 4.1641-35.043 12.348-21.266 12.852-47.996 46.371-73.316 92.102-35.363 63.789-56.844 129.14-68.648 172.72-43.262 163.89-78.234 392.36-118.72 656.95-3.8438 25.059-7.7383 50.516-11.699 76.324-40.848 255.26-76.211 507.46-105.09 749.59l9.6406 2.3594m-577.05-1763.8c-29.828 162.57-33.219 386.69-10.062 666.28l1.2148 14.68 7.9688-12.395c15.137-23.504 31.129-49.25 43.996-69.918 5.3438-8.5977 10.863-17.469 14.98-24.008l0.042969-0.09375 0.03125-0.042968c72.398-122.1 171.21-306.98 230.84-494.47 55.633-174.91 62.945-313.52 21.16-400.77l-0.050782-0.089844-0.050781-0.09375c-8.2578-15.547-18.648-27.438-30.848-35.348-12.309-8.0039-26.602-12.074-42.477-12.074-35.383 0-77 20.262-114.19 55.562l-0.058594 0.09375-0.0625 0.042969c-55.238 56.34-99.84 170.16-122.36 312.24l-0.070313 0.41016m251.52-455.79c56.492 0 101.79 28.172 134.65 83.824 54.578 91.594 54.695 242.41 0.33594 436.16-49.309 175.79-142.91 382.57-263.55 582.27l-0.023437 0.046875-0.027344 0.046875c-26.531 45.957-58.66 90.223-89.73 133.02-5.6172 7.7305-11.418 15.734-17.078 23.598l-1.2109 1.6484 0.32812 2.0547 118.98 752.16 0.007812 0.015624v0.027344c50.27 298.12 43.32 598.77-20.652 893.61l9.0586 3.8086c49.984-75.895 79.344-128.09 89.773-159.57l0.16797-0.50781 0.058593-0.53906c24.285-230.4 59.133-496.76 95.613-730.77 39.156-253.27 95.52-502.84 167.52-741.77 58.352-193.66 126.98-379.19 198.46-536.5 81.719-175.83 175.5-296.55 278.73-358.75 24.059-14.496 48.52-21.859 72.676-21.859 48.852 0 93.582 31.051 122.74 85.148l0.11328 0.18359c52.586 101.84 56.27 262.3 10.945 476.96-37.867 179.35-110.52 396.11-210.08 626.83-43.598 98.781-103.17 228.94-160.77 354.82-106.52 232.77-216.67 473.45-233.6 531.91l-0.097656 0.35156-0.050781 0.35547c-14.273 103.93-26.379 265.54-41.699 470.12l-0.13281 1.7891c-1.4492 19.301-2.918 39.004-4.4258 59.074l9.707 1.9961c31.449-91.457 73.098-205.03 117.27-319.77 35.562-89.211 143.72-360.5 330.06-472.7 44.422-26.785 85.199-40.352 121.2-40.352 46.578 0 83.41 22.758 106.52 65.816l0.19141 0.36328 0.16016 0.36719c29.883 64.902 18.762 172.04 3.6016 285.45-1.5586 12.293-3.0586 24.023-4.4922 35.152l-0.007813 0.070312c-9.2305 71.949-15.328 119.49-15.242 158.44l-0.007813 0.37891c-0.71875 30.148 3.3594 66.449 26.902 68.195l0.30469 0.035157 0.3125-0.019532c13.719-0.66406 40.73-23.672 62.148-60.973l0.14453-0.24219c14.375-24.059 29.746-53.363 45.668-87.109l1.0781-2.2773-1.1992-2.2305c-29.512-54.77-50.398-120.65-58.82-185.5-4.8672-37.508-5.6016-74.531-2.1719-110.04 3.7812-39.141 12.641-76.664 26.363-111.54l0.097656-0.26172 0.074219-0.26953c2.7383-10.18 29.195-103.17 113.41-229.39 51.469-77.141 114.04-150.96 185.99-219.43 89.816-85.469 194.58-162.78 311.38-229.81l0.45703-0.26172 6.3125-2.9688c98.27-46.078 186.03-69.438 260.84-69.438 73.395 0 130.38 22.859 164.9 66.098l0.18359 0.24219c43.992 57.215 45.637 132.53 4.8477 223.82-38.367 85.832-109.66 175.51-159.91 235.47l-0.18359 0.18359c-55.059 63.66-138.47 143.07-234.82 223.58-87.438 73.098-179.81 142.36-253.39 190.04l-2.7461 1.7773 0.55078 3.2188c4.0703 25.043 18.199 61.266 40.469 85.754 34.848 38.238 107.83 63.93 181.64 63.93 37.957 0 72.758-6.9297 100.7-20.031 60.957-28.547 139.29-95.23 214.93-182.94l1.6914-1.9688-0.63672-2.5195c-17.746-70.672-30.094-177.42 12.07-284.67l0.13672-0.25781 0.046874-0.26953c2.7422-10.191 29.176-103.19 113.36-229.42 51.492-77.129 114.05-150.96 185.98-219.43 89.859-85.457 194.62-162.78 311.42-229.77l0.45703-0.27344 6.3555-2.9727c98.273-46.098 186.03-69.465 260.84-69.465 73.352 0 130.33 22.867 164.86 66.078l0.18359 0.23047c44.039 57.207 45.684 132.52 4.8945 223.86-38.367 85.84-109.66 175.5-159.96 235.44l-0.13672 0.1875c-55.059 63.66-138.47 143.06-234.82 223.57-87.434 73.102-179.81 142.37-253.43 190.05l-2.7461 1.7852 0.55078 3.2188c4.1133 25.078 18.199 61.328 40.422 85.797 34.848 38.23 107.88 63.922 181.73 63.922 37.91-0.007812 72.754-6.9297 100.74-20.039 51.629-24.25 115.79-75.719 180.59-144.91l1.6914-1.8594-0.45703-2.4922c-11.891-62.887-18.293-157.79 19.07-252.76l0.089844-0.26172 0.046875-0.26953c2.7422-10.188 29.219-103.2 113.41-229.4 51.492-77.141 114.05-150.96 185.98-219.42 89.855-85.469 194.62-162.78 311.41-229.77l0.46094-0.27344 6.3555-2.9727c98.27-46.094 186.07-69.461 260.84-69.461 73.348 0 130.42 22.863 164.9 66.125l0.18359 0.22656c44.039 57.207 45.637 132.52 4.8477 223.81-38.367 85.879-109.66 175.53-159.96 235.48l-0.13672 0.14453c-55.105 63.684-138.47 143.09-234.82 223.61-87.48 73.09-179.86 142.34-253.43 190.02l-2.7891 1.7773 0.55078 3.2305c4.1602 25.09 18.242 61.34 40.516 85.758 34.797 38.254 107.83 63.941 181.68 63.941 37.91 0 72.758-6.9297 100.74-20.047 87.801-41.172 234.27-172.16 381.98-416.3v-0.050781l0.042969-0.035156c63.016-109.3 128.96-252.33 164.17-355.92l0.17969-0.46094 0.18359-0.48047c7.9102-18.578 13.629-32.008 19.664-40.887 5.7148-8.3398 11.02-11.754 18.336-11.754 4.3477 0 10.75 1.6523 16.512 9.4961 4.8008 6.5898 16.094 22.008-16.234 148.06-20.535 79.988-51.996 177.34-88.672 274.12-44.996 118.82-163.89 407.88-295.82 525.42-139.43 124.22-306.75 150.3-422.63 150.3-45.09-0.015625-91.047-3.9023-136.64-11.594-42.297-7.1289-83.316-17.348-121.91-30.359-72.617-24.48-131.38-57.32-161.2-90.109-2.5156-2.7617-5.1211-5.8086-7.7266-9.0586l-3.9805-4.9531-3.8867 5.0547c-21.766 28.379-43.215 52.098-63.793 70.469-139.43 124.23-306.8 150.3-422.63 150.3-44.039 0-88.945-3.7188-133.48-11.047-41.387-6.832-81.676-16.625-119.72-29.113-71.246-23.406-130.37-55.25-162.2-87.348l-4.3477-4.4023-3.3828 5.1914c-35.395 54.312-70.059 96.797-103.07 126.28-139.43 124.23-306.8 150.31-422.63 150.31-184.73 0-350.83-64.629-413.34-125.44l-4.9531-4.8281-3.0273 6.2188c-64.402 132.47-137.94 225.8-218.54 277.39-54.023 34.098-102.41 51.391-143.82 51.391-28.867 0-54.641-8.4023-76.594-24.98-22.086-16.68-39.605-41.09-52.047-72.48-26.258-68.09-18.5-133.75 0.058594-264.04 2.4414-16.5 4.9102-33.133 7.3906-49.77l0.73828-4.9688c9.9922-67.062 20.324-136.4 27.141-191.04 1.2812-9.6328-0.32031-18.066-4.2617-22.574-2.0898-2.3789-4.7344-3.4883-8.3477-3.4883-1.4688 0-3.0781 0.1875-4.8086 0.58203-9.3398 2.0781-35.84 14.418-79.859 83.855l-0.019532 0.042969-0.03125 0.050781c-39.242 64.867-85.492 168.3-133.76 299.1-43.801 117.6-74.926 206.98-107.86 301.61l-0.34766 1.0078c-24.41 70.113-49.652 142.61-80.781 228.43l-0.03125 0.074219-0.019531 0.070312c-5.1562 15.762-19.977 34.312-45.309 56.723-23.211 20.527-52.68 41.973-81.07 62.078-6.6719 4.7344-12.98 9.1992-18.07 12.934l-0.37891 0.26953c-57.113 39.457-88.004 54.828-110.18 54.828-15.34 0-26.391-6.8672-33.781-21.008-6.3711-12.211-8.418-26.93-9.6406-35.75l-0.066407-0.55078c-9.9336-99.48-4.3125-223.94 2.1484-310.79 3.5117-42.25 8.5-88.594 14.828-137.75l-9.207-3.2812c-37.793 60.797-97.426 144.51-150.35 218.21l-0.42969 0.60547-0.24219 0.70703c-99.867 293.94-256.66 580.39-466.03 851.41l6.9922 7.0273c548.82-418.86 1105.6-735.32 1654.8-940.57 689.62-257.72 1463-388.39 2298.6-388.39 153.29 0 310.55 4.4688 467.54 13.289 5.3516 0.3125 9.9727 3.5156 12.121 8.3672 3.3828 7.6797-0.13672 15.621-8.8281 29.469-5.8516 9.4336-14.539 21.941-26.477 38.242-20.395 27.918-50.301 66.797-88.941 115.54-69.691 88.035-153.61 190.46-203.73 251.66l-0.089844 0.09375-0.73438 0.91797c-24.738 30.168-42.574 51.98-45.133 55.477-15 20.453-42.984 44.34-72.48 44.34-0.96094 0-1.7852-0.015625-2.5625-0.058594-236.24-13.289-465.3-20.027-680.82-20.027-1527.6 0-2570.2 322.58-3486 1078.6-716.96 591.82-1194.5 1239-1398.4 1515.4-77.09 104.48-104.54 141.06-119.97 149.69l-0.14453 0.078126-0.13672 0.089843c-0.37891 0.24219-0.78906 0.48047-1.2148 0.70312-3.3086 1.7383-6.8438 2.6172-10.504 2.6172-28.52 0-48.699-56.789-54.211-74.199l-0.085937-0.26953-0.074219-0.28906c-45.492-170.28-49.336-424.74-11.129-735.87l0.68359-5.5703-5.6172-0.039063c-125.86-0.67578-248.51-27.918-354.69-78.77-123.27-59.043-222.48-147.52-294.85-262.98-155.55-255.62-150.69-580.35 14.062-939.09 137.74-299.9 381.67-606.87 669.25-842.21l0.035156-0.03125 0.035156-0.027344c237.36-201.29 636.52-417.93 952.02-417.93 44.051 0 85.973 4.2734 124.59 12.691l3.3203 0.73047 1.9023-2.8203c50.129-74.418 103.84-155.79 160.69-241.93l0.55078-0.82812c133.22-201.86 284.21-430.65 425.98-624.32l0.94922-1.3008 0.007813-1.6094c2.082-236.87 23.812-467.47 64.609-685.42 37.242-198.97 90.043-381.98 152.7-529.27 66.547-159.18 209.15-382.07 365.01-495.34 42.484-30.824 106.45-67.59 169.89-67.59" fill="#be1e96"/>
</g>
</g>
</svg>
